<svg width="289" height="126" viewBox="0 0 289 126" fill="none" xmlns="http://www.w3.org/2000/svg">
<path d="M23.0104 100.99C20.0037 100.99 17.1071 100.037 14.3204 98.13C12.7071 97.03 11.2404 97.3233 9.92039 99.01C9.18706 99.8167 8.63706 100.33 8.27039 100.55C7.90372 100.843 7.53706 100.99 7.17039 100.99C6.36372 100.99 6.07039 100.477 6.29039 99.45C6.58372 97.7633 6.80372 95.6 6.95039 92.96C7.09706 90.32 7.17039 86.8 7.17039 82.4V29.6C7.17039 28.28 6.95039 27.4 6.51039 26.96C6.14372 26.4467 5.44706 26.1167 4.42039 25.97L2.11039 25.64C1.30372 25.4933 0.900391 25.0533 0.900391 24.32C0.900391 23.5867 1.30372 23.1467 2.11039 23C4.16372 22.56 5.88706 22.0467 7.28039 21.46C8.67372 20.8733 9.84706 20.2867 10.8004 19.7C11.9737 18.9667 12.8537 18.6 13.4404 18.6C14.2471 18.6 14.6504 19.1867 14.6504 20.36V47.53C14.6504 48.1167 14.8704 48.52 15.3104 48.74C15.8237 48.8867 16.3737 48.6667 16.9604 48.08C20.1137 44.8533 23.5604 43.24 27.3004 43.24C30.6737 43.24 33.6437 44.3767 36.2104 46.65C38.8504 48.85 40.9037 51.93 42.3704 55.89C43.9104 59.85 44.6804 64.5067 44.6804 69.86C44.6804 75.9467 43.7271 81.3367 41.8204 86.03C39.9137 90.7233 37.3104 94.39 34.0104 97.03C30.7837 99.67 27.1171 100.99 23.0104 100.99ZM22.7904 98.24C26.8971 98.24 30.1971 95.82 32.6904 90.98C35.2571 86.14 36.5404 79.6133 36.5404 71.4C36.5404 63.8467 35.4404 58.09 33.2404 54.13C31.0404 50.17 27.9237 48.19 23.8904 48.19C21.3971 48.19 19.2337 49.2167 17.4004 51.27C15.5671 53.3233 14.6504 56.1833 14.6504 59.85V87.57C14.6504 90.87 15.3837 93.4733 16.8504 95.38C18.3904 97.2867 20.3704 98.24 22.7904 98.24Z" fill="#EFEAE0"></path>
<path d="M62.7599 33.45C61.2199 33.45 59.8999 32.9 58.7999 31.8C57.7733 30.7 57.2599 29.3067 57.2599 27.62C57.2599 25.9333 57.7733 24.5767 58.7999 23.55C59.8999 22.45 61.2199 21.9 62.7599 21.9C64.2999 21.9 65.5833 22.45 66.6099 23.55C67.6366 24.5767 68.1499 25.9333 68.1499 27.62C68.1499 29.3067 67.6366 30.7 66.6099 31.8C65.5833 32.9 64.2999 33.45 62.7599 33.45ZM53.5199 100C52.4199 100 51.8699 99.5967 51.8699 98.79C51.8699 98.13 52.3466 97.69 53.2999 97.47L54.6199 97.25C56.4533 96.9567 57.6266 96.5167 58.1399 95.93C58.6533 95.27 58.9099 94.17 58.9099 92.63V55.67C58.9099 54.35 58.6899 53.47 58.2499 53.03C57.8833 52.5167 57.1866 52.1867 56.1599 52.04L53.8499 51.71C52.8966 51.6367 52.4199 51.2333 52.4199 50.5C52.4199 49.9133 53.0066 49.51 54.1799 49.29C56.4533 48.9233 58.2866 48.3367 59.6799 47.53C61.0733 46.7233 62.4299 45.7333 63.7499 44.56C64.4099 43.9 64.9599 43.57 65.3999 43.57C66.0599 43.57 66.3899 44.01 66.3899 44.89V92.63C66.3899 94.17 66.6099 95.27 67.0499 95.93C67.4899 96.59 68.3333 96.9933 69.5799 97.14L72.3299 97.47C73.1366 97.6167 73.5399 98.02 73.5399 98.68C73.5399 99.56 72.9899 100 71.8899 100H53.5199Z" fill="#EFEAE0"></path>
<path d="M95.3921 123.65C89.8188 123.65 85.4188 122.513 82.1921 120.24C78.9654 118.04 77.3521 115.363 77.3521 112.21C77.3521 110.89 77.5354 109.68 77.9021 108.58C78.2688 107.553 79.0388 106.343 80.2121 104.95C81.4588 103.557 83.3288 101.76 85.8221 99.56C86.7021 98.7533 87.1421 98.02 87.1421 97.36C87.1421 96.6267 86.7021 96.0767 85.8221 95.71C83.1821 94.61 81.6054 93.2167 81.0921 91.53C80.5788 89.77 81.2021 88.1567 82.9621 86.69L90.8821 79.87C91.7621 79.1367 91.7254 78.5133 90.7721 78C87.7654 76.5333 85.3821 74.26 83.6221 71.18C81.8621 68.1 80.9821 64.8 80.9821 61.28C80.9821 57.9067 81.7154 54.8633 83.1821 52.15C84.6488 49.4367 86.6288 47.2733 89.1221 45.66C91.6154 44.0467 94.4021 43.24 97.4821 43.24C99.2421 43.24 100.929 43.5333 102.542 44.12C103.569 44.4867 104.192 44.1567 104.412 43.13C105.072 40.3433 106.282 38.18 108.042 36.64C109.875 35.0267 111.672 34.22 113.432 34.22C115.119 34.22 116.475 34.7333 117.502 35.76C118.602 36.7133 119.152 37.9233 119.152 39.39C119.152 40.6367 118.785 41.6267 118.052 42.36C117.319 43.0933 116.402 43.46 115.302 43.46C114.349 43.46 113.652 43.2767 113.212 42.91C112.772 42.5433 112.369 42.1767 112.002 41.81C111.635 41.4433 111.049 41.26 110.242 41.26C108.482 41.26 107.382 42.2133 106.942 44.12C106.722 44.8533 106.722 45.4767 106.942 45.99C107.235 46.5033 107.639 47.0167 108.152 47.53C109.912 49.2167 111.269 51.27 112.222 53.69C113.249 56.11 113.762 58.7867 113.762 61.72C113.762 65.24 113.029 68.3933 111.562 71.18C110.169 73.9667 108.225 76.1667 105.732 77.78C103.312 79.3933 100.562 80.2 97.4821 80.2C96.1621 80.2 95.0254 80.4933 94.0721 81.08C93.1188 81.5933 92.1654 82.3633 91.2121 83.39L89.3421 85.48C88.3888 86.6533 88.0954 87.79 88.4621 88.89C88.9021 89.9167 89.9288 90.43 91.5421 90.43H101.002C106.282 90.43 110.462 91.75 113.542 94.39C116.622 96.9567 118.162 100.513 118.162 105.06C118.162 108.653 117.135 111.843 115.082 114.63C113.029 117.417 110.279 119.617 106.832 121.23C103.459 122.843 99.6454 123.65 95.3921 123.65ZM97.3721 77.45C100.012 77.45 102.102 76.02 103.642 73.16C105.182 70.3 105.952 66.4133 105.952 61.5C105.952 56.7333 105.145 52.92 103.532 50.06C101.992 47.1267 99.9388 45.66 97.3721 45.66C94.8054 45.66 92.7154 47.1267 91.1021 50.06C89.5621 52.92 88.7921 56.7333 88.7921 61.5C88.7921 66.4133 89.5621 70.3 91.1021 73.16C92.6421 76.02 94.7321 77.45 97.3721 77.45ZM96.7121 121.23C99.3521 121.23 101.772 120.643 103.972 119.47C106.172 118.297 107.895 116.647 109.142 114.52C110.462 112.467 111.122 110.12 111.122 107.48C111.122 104.18 110.132 101.65 108.152 99.89C106.245 98.0567 103.532 97.14 100.012 97.14H97.4821C95.2088 97.14 93.4854 97.36 92.3121 97.8C91.2121 98.24 90.1488 99.01 89.1221 100.11C86.8488 102.53 85.4188 104.473 84.8321 105.94C84.2454 107.407 83.9521 108.91 83.9521 110.45C83.9521 113.677 85.0521 116.28 87.2521 118.26C89.5254 120.24 92.6788 121.23 96.7121 121.23Z" fill="#EFEAE0"></path>
<path d="M150.311 92.63V49.62C150.311 47.86 149.431 46.98 147.671 46.98H145.141C144.261 46.98 143.821 46.6133 143.821 45.88C143.821 45.1467 144.261 44.7433 145.141 44.67C148.588 44.3033 150.311 42.8 150.311 40.16V39.5C150.311 35.6867 150.861 32.13 151.961 28.83C153.135 25.53 154.785 22.8533 156.911 20.8C159.111 18.7467 161.788 17.72 164.941 17.72C167.875 17.72 170.331 18.5633 172.311 20.25C174.291 21.9367 175.281 23.9533 175.281 26.3C175.281 27.6933 174.915 28.7567 174.181 29.49C173.521 30.15 172.605 30.48 171.431 30.48C169.965 30.48 168.901 30.0033 168.241 29.05C167.655 28.0967 167.178 27.0333 166.811 25.86C166.445 24.6133 165.968 23.5133 165.381 22.56C164.868 21.6067 163.915 21.13 162.521 21.13C161.055 21.13 159.881 21.9733 159.001 23.66C158.195 25.2733 157.791 28.3533 157.791 32.9V42.58C157.791 43.46 158.231 43.9 159.111 43.9H168.571C169.671 43.9 170.221 44.4133 170.221 45.44C170.221 46.4667 169.671 46.98 168.571 46.98H159.111C158.231 46.98 157.791 47.42 157.791 48.3V92.63C157.791 94.17 158.011 95.2333 158.451 95.82C158.965 96.4067 159.991 96.7733 161.531 96.92L167.361 97.47C168.168 97.6167 168.571 98.02 168.571 98.68C168.571 99.56 168.021 100 166.921 100H144.041C142.941 100 142.391 99.5967 142.391 98.79C142.391 97.9833 142.868 97.5433 143.821 97.47L146.571 97.25C148.111 97.1033 149.101 96.7 149.541 96.04C150.055 95.3067 150.311 94.17 150.311 92.63Z" fill="#EFEAE0"></path>
<path d="M179.75 100C178.65 100 178.1 99.5967 178.1 98.79C178.1 98.13 178.576 97.69 179.53 97.47L180.85 97.25C182.683 96.9567 183.856 96.5167 184.37 95.93C184.883 95.27 185.14 94.17 185.14 92.63V55.67C185.14 54.35 184.92 53.47 184.48 53.03C184.113 52.5167 183.416 52.1867 182.39 52.04L180.08 51.71C179.126 51.6367 178.65 51.2333 178.65 50.5C178.65 49.9133 179.236 49.51 180.41 49.29C182.683 48.9233 184.516 48.3367 185.91 47.53C187.303 46.7233 188.66 45.7333 189.98 44.56C190.64 43.9 191.19 43.57 191.63 43.57C192.29 43.57 192.62 44.01 192.62 44.89V92.63C192.62 94.17 192.84 95.27 193.28 95.93C193.72 96.59 194.563 96.9933 195.81 97.14L198.56 97.47C199.366 97.6167 199.77 98.02 199.77 98.68C199.77 99.56 199.22 100 198.12 100H179.75Z" fill="#EFEAE0"></path>
<path d="M216.452 100.99C214.765 100.99 212.968 100.77 211.062 100.33C209.155 99.9633 207.615 99.4867 206.442 98.9C205.782 98.5333 205.452 97.91 205.452 97.03L205.122 84.71C205.122 83.4633 205.598 82.84 206.552 82.84C207.358 82.84 207.908 83.4267 208.202 84.6C209.448 89.8067 210.952 93.3633 212.712 95.27C214.545 97.1767 216.745 98.13 219.312 98.13C221.438 98.13 223.198 97.3233 224.592 95.71C225.985 94.0233 226.682 91.7133 226.682 88.78C226.682 85.8467 225.875 83.2433 224.262 80.97C222.648 78.6967 219.935 76.2033 216.122 73.49C212.308 70.9233 209.522 68.3567 207.762 65.79C206.002 63.15 205.122 60.29 205.122 57.21C205.122 53.03 206.588 49.6567 209.522 47.09C212.455 44.5233 216.342 43.24 221.182 43.24C222.648 43.24 224.078 43.4233 225.472 43.79C226.865 44.0833 228.112 44.5967 229.212 45.33C229.872 45.77 230.202 46.3567 230.202 47.09L230.422 59.19C230.422 60.29 229.982 60.84 229.102 60.84C228.588 60.84 228.222 60.6933 228.002 60.4C227.782 60.0333 227.598 59.5933 227.452 59.08C225.985 54.3133 224.518 51.0133 223.052 49.18C221.585 47.2733 219.788 46.32 217.662 46.32C215.755 46.32 214.178 46.98 212.932 48.3C211.685 49.62 211.062 51.27 211.062 53.25C211.062 55.8167 211.832 58.0533 213.372 59.96C214.912 61.8667 217.698 64.2133 221.732 67C225.398 69.64 228.148 72.5 229.982 75.58C231.888 78.5867 232.842 81.8867 232.842 85.48C232.842 90.1733 231.338 93.95 228.332 96.81C225.325 99.5967 221.365 100.99 216.452 100.99Z" fill="#EFEAE0"></path>
<path d="M239.95 100C239.07 100 238.63 99.5967 238.63 98.79C238.63 98.0567 239.033 97.6167 239.84 97.47L241.38 97.25C242.92 97.03 243.91 96.59 244.35 95.93C244.863 95.27 245.12 94.17 245.12 92.63V29.6C245.12 28.28 244.9 27.4 244.46 26.96C244.093 26.4467 243.396 26.1167 242.37 25.97L240.06 25.64C239.253 25.4933 238.85 25.0533 238.85 24.32C238.85 23.5867 239.253 23.1467 240.06 23C242.113 22.56 243.836 22.0467 245.23 21.46C246.623 20.8733 247.796 20.2867 248.75 19.7C249.923 18.9667 250.803 18.6 251.39 18.6C252.196 18.6 252.6 19.1867 252.6 20.36V49.51C252.6 50.17 252.82 50.5733 253.26 50.72C253.7 50.7933 254.25 50.5367 254.91 49.95C257.696 47.3833 260.153 45.6233 262.28 44.67C264.406 43.7167 266.643 43.24 268.99 43.24C272.436 43.24 275.15 44.4133 277.13 46.76C279.11 49.0333 280.1 52.4067 280.1 56.88V92.63C280.1 94.17 280.32 95.27 280.76 95.93C281.273 96.5167 282.3 96.92 283.84 97.14L286.26 97.47C287.066 97.6167 287.47 98.0567 287.47 98.79C287.47 99.5967 287.03 100 286.15 100H267.67C266.643 100 266.13 99.5967 266.13 98.79C266.13 98.0567 266.533 97.6167 267.34 97.47L268.88 97.25C270.42 97.03 271.41 96.59 271.85 95.93C272.363 95.27 272.62 94.17 272.62 92.63V58.09C272.62 54.4967 271.96 51.9667 270.64 50.5C269.32 49.0333 267.45 48.3 265.03 48.3C262.683 48.3 260.556 48.9967 258.65 50.39C256.816 51.71 255.35 53.5067 254.25 55.78C253.15 57.98 252.6 60.4367 252.6 63.15V92.63C252.6 94.17 252.82 95.27 253.26 95.93C253.773 96.59 254.8 96.9933 256.34 97.14L259.31 97.47C260.116 97.6167 260.52 98.0567 260.52 98.79C260.52 99.5967 260.08 100 259.2 100H239.95Z" fill="#EFEAE0"></path>
<path d="M197 28C197 32.4183 193.418 36 189 36C184.582 36 181 32.4183 181 28C181 23.5817 184.582 20 189 20C193.418 20 197 23.5817 197 28Z" fill="#EB6247"></path>
</svg>