<?xml version="1.0" encoding="UTF-8" standalone="no"?>
<svg
   xmlns:dc="http://purl.org/dc/elements/1.1/"
   xmlns:cc="http://creativecommons.org/ns#"
   xmlns:rdf="http://www.w3.org/1999/02/22-rdf-syntax-ns#"
   xmlns:svg="http://www.w3.org/2000/svg"
   xmlns="http://www.w3.org/2000/svg"
   xmlns:sodipodi="http://sodipodi.sourceforge.net/DTD/sodipodi-0.dtd"
   xmlns:inkscape="http://www.inkscape.org/namespaces/inkscape"
   width="300"
   height="71"
   viewBox="0 0 1000 235"
   version="1.0"
   id="svg2"
   sodipodi:version="0.32"
   inkscape:version="0.46"
   sodipodi:docname="1000px-Federal-Mogul.svg"
   inkscape:output_extension="org.inkscape.output.svg.inkscape">
  <metadata
     id="metadata38">
    <rdf:RDF>
      <cc:Work
         rdf:about="">
        <dc:format>image/svg+xml</dc:format>
        <dc:type
           rdf:resource="http://purl.org/dc/dcmitype/StillImage" />
      </cc:Work>
    </rdf:RDF>
  </metadata>
  <defs
     id="defs36">
    <inkscape:perspective
       sodipodi:type="inkscape:persp3d"
       inkscape:vp_x="0 : 146.875 : 1"
       inkscape:vp_y="0 : 1000 : 0"
       inkscape:vp_z="1250 : 146.875 : 1"
       inkscape:persp3d-origin="625 : 97.916667 : 1"
       id="perspective40" />
  </defs>
  <sodipodi:namedview
     inkscape:window-height="669"
     inkscape:window-width="640"
     inkscape:pageshadow="2"
     inkscape:pageopacity="0.0"
     guidetolerance="10.0"
     gridtolerance="10.0"
     objecttolerance="10.0"
     borderopacity="1.0"
     bordercolor="#666666"
     pagecolor="#ffffff"
     id="base"
     showgrid="false"
     inkscape:zoom="0.4352"
     inkscape:cx="625"
     inkscape:cy="146.875"
     inkscape:window-x="115"
     inkscape:window-y="95"
     inkscape:current-layer="svg2" />
  <g
     id="#035aa1ff">
    <path
       d="M 78.32,0 L 85.99,0 C 100.97,0.76 115.75,5.46 128.2,13.85 C 143.51,24.03 155.28,39.42 161.02,56.89 C 166.69,73.96 166.55,92.89 160.62,109.88 C 154.94,126.29 143.94,140.8 129.69,150.72 C 115.56,160.67 98.23,165.96 80.96,165.58 C 61.83,165.29 42.96,157.96 28.55,145.39 C 11.88,131.09 1.42,109.96 0,88.05 L 0,77.97 C 1.23,56.46 11.26,35.66 27.32,21.3 C 41.22,8.6 59.56,1.13 78.32,0 M 74.44,40.64 C 58.51,43.56 44.96,56.32 41.06,72.03 C 37.83,84.25 40.39,97.84 47.89,108.01 C 55.64,118.82 68.64,125.65 81.96,125.71 C 93.94,125.97 105.86,120.78 113.94,111.96 C 122.58,102.72 126.79,89.54 124.99,77.01 C 123.38,64.61 115.97,53.17 105.4,46.51 C 96.33,40.69 85.01,38.58 74.44,40.64 z"
       id="path5"
       style="opacity:1;fill:#035aa1" />
    <path
       d="M 206.65,37.35 C 238.23,37.32 269.82,37.32 301.41,37.35 C 301.4,44.63 301.42,51.91 301.4,59.19 C 279.1,59.21 256.8,59.19 234.51,59.2 C 234.5,64.84 234.49,70.49 234.51,76.13 C 255.77,76.14 277.03,76.12 298.29,76.14 C 298.29,83.18 298.3,90.22 298.28,97.26 C 277.02,97.29 255.76,97.24 234.49,97.28 C 234.5,107.61 234.51,117.94 234.49,128.27 C 225.21,128.26 215.93,128.28 206.66,128.26 C 206.63,97.95 206.65,67.65 206.65,37.35 z"
       id="path7"
       style="opacity:1;fill:#035aa1" />
    <path
       d="M 309.95,37.34 C 343.06,37.34 376.17,37.31 409.28,37.35 C 409.27,44.39 409.28,51.42 409.27,58.46 C 385.44,58.48 361.6,58.44 337.77,58.48 C 337.76,63.32 337.76,68.15 337.77,72.99 C 360.34,73.01 382.92,72.99 405.5,73.01 C 405.5,79.29 405.5,85.58 405.5,91.87 C 382.92,91.88 360.35,91.86 337.77,91.87 C 337.75,96.7 337.76,101.53 337.77,106.37 C 362.12,106.38 386.47,106.37 410.82,106.37 C 410.83,113.66 410.83,120.96 410.82,128.26 C 377.2,128.27 343.57,128.27 309.95,128.26 C 309.94,97.95 309.94,67.65 309.95,37.34 z"
       id="path9"
       style="opacity:1;fill:#035aa1" />
    <path
       d="M 420.36,37.34 C 447.91,37.33 475.46,37.34 503.01,37.34 C 512.73,37.42 523.26,37.74 531.59,43.39 C 538.9,48.34 541.56,57.55 541.83,65.96 C 542.04,76.64 541.94,87.34 541.9,98.03 C 541.78,106.36 539.79,115.53 533.06,121.09 C 525.8,127.03 515.95,127.96 506.93,128.24 C 478.07,128.3 449.22,128.25 420.37,128.27 C 420.33,97.96 420.36,67.65 420.36,37.34 M 448.18,59.94 C 448.17,74.94 448.18,89.93 448.18,104.93 C 464.12,104.94 480.05,104.93 495.99,104.93 C 500.24,104.81 504.79,104.89 508.59,102.71 C 512.01,100.81 513.47,96.79 513.83,93.09 C 514.33,87.75 514.05,82.38 514.11,77.02 C 514.03,72.38 513.9,67.1 510.45,63.56 C 506.9,60.17 501.65,60.11 497.05,59.95 C 480.76,59.91 464.47,59.94 448.18,59.94 z"
       id="path11"
       style="opacity:1;fill:#035aa1" />
    <path
       d="M 550.44,37.34 C 583.53,37.33 616.61,37.33 649.7,37.34 C 649.7,44.38 649.72,51.43 649.69,58.47 C 625.91,58.46 602.12,58.47 578.34,58.46 C 578.32,63.3 578.33,68.15 578.33,72.99 C 600.87,73.02 623.4,72.98 645.94,73.01 C 645.94,79.29 645.95,85.58 645.93,91.86 C 623.4,91.87 600.87,91.86 578.34,91.87 C 578.33,96.71 578.32,101.55 578.34,106.38 C 602.68,106.37 627.02,106.36 651.36,106.38 C 651.34,113.67 651.37,120.97 651.34,128.26 C 617.71,128.28 584.09,128.26 550.46,128.27 C 550.43,97.96 550.45,67.65 550.44,37.34 z"
       id="path13"
       style="opacity:1;fill:#035aa1" />
    <path
       d="M 659.89,37.34 C 687.93,37.34 715.97,37.32 744.01,37.35 C 751.36,37.39 759.49,38.63 764.82,44.19 C 770.07,49.71 771.06,57.75 771.06,65.04 C 771.01,71.51 771.44,78.43 768.26,84.31 C 765.68,89.01 760.52,91.37 755.56,92.69 C 761.34,93.55 767.3,96.82 769.15,102.71 C 771.76,110.96 770.28,119.77 770.65,128.27 C 761.38,128.25 752.11,128.28 742.84,128.26 C 742.53,122.25 743.58,116.05 741.88,110.19 C 740.66,106 735.94,104.64 732.05,104.7 C 717.27,104.62 702.49,104.68 687.71,104.67 C 687.69,112.53 687.71,120.39 687.7,128.25 C 678.43,128.28 669.16,128.27 659.89,128.26 C 659.88,97.95 659.87,67.64 659.89,37.34 M 687.71,59.94 C 687.7,67.31 687.7,74.69 687.71,82.06 C 703.13,82.06 718.56,82.1 733.98,82.04 C 737.53,82.09 741.86,80.99 743.18,77.25 C 744.35,73.44 744.13,69.26 743.42,65.39 C 742.27,60.89 737.02,59.98 733.07,59.99 C 717.95,59.86 702.83,59.96 687.71,59.94 z"
       id="path15"
       style="opacity:1;fill:#035aa1" />
    <path
       d="M 821.77,37.35 C 833.81,37.27 845.85,37.41 857.89,37.28 C 874.72,67.52 891.22,97.94 907.9,128.26 C 897.58,128.27 887.27,128.27 876.96,128.26 C 874.05,122.93 871.18,117.58 868.32,112.23 C 849.52,112.16 830.72,112.22 811.92,112.2 C 809.17,117.54 806.49,122.91 803.75,128.26 C 793.39,128.27 783.03,128.27 772.67,128.26 C 789.01,97.94 805.43,67.67 821.77,37.35 M 839.84,58.48 C 833.99,69.85 828.15,81.22 822.32,92.59 C 834.17,92.61 846.02,92.6 857.88,92.6 C 851.86,81.23 845.88,69.84 839.84,58.48 z"
       id="path17"
       style="opacity:1;fill:#035aa1" />
    <path
       d="M 909.53,37.35 C 918.8,37.33 928.08,37.32 937.35,37.35 C 937.35,59.87 937.36,82.4 937.35,104.92 C 958.19,104.95 979.03,104.92 999.87,104.94 C 999.88,112.71 999.89,120.49 999.87,128.26 C 969.76,128.26 939.65,128.27 909.54,128.26 C 909.52,97.95 909.54,67.65 909.53,37.35 z"
       id="path19"
       style="opacity:1;fill:#035aa1" />
    <path
       d="M 62.52,57.5 C 71.02,50.47 83.35,48.38 93.64,52.44 C 104.86,56.62 113.23,67.44 114.35,79.39 C 93.14,79.41 71.93,79.41 50.73,79.39 C 51.51,70.89 55.84,62.82 62.52,57.5 z"
       id="path21"
       style="opacity:1;fill:#035aa1" />
    <path
       d="M 50.73,86.21 C 71.94,86.2 93.15,86.19 114.36,86.21 C 113.18,101.99 98.81,115.26 83,115.22 C 66.88,115.7 52.07,102.23 50.73,86.21 z"
       id="path23"
       style="opacity:1;fill:#035aa1" />
    <path
       d="M 397.36,141.53 C 415.24,141.24 433.13,141.47 451.02,141.41 C 460.68,141.68 471.21,142.72 478.95,149.13 C 485.87,154.9 488.04,164.36 488.15,173 C 488.16,183.34 488.25,193.67 488.1,204.01 C 487.83,212.31 485.45,221.27 478.73,226.71 C 471.26,232.78 461.19,233.88 451.91,234.24 C 437.93,234.4 423.96,234.27 409.98,234.31 C 399.71,234.3 389.01,234.58 379.36,230.53 C 373.31,228.06 368.36,223.06 366.1,216.91 C 362.47,207.36 363.88,196.97 363.59,187 C 363.81,175.64 362.14,162.98 369.11,153.14 C 375.47,144.26 387.13,142.03 397.36,141.53 M 402.47,165.57 C 398.95,166.45 395.69,168.72 394.19,172.09 C 391.76,177.37 392.23,183.36 392.14,189.02 C 392.37,194.55 391.71,200.55 394.5,205.58 C 397.01,209.85 402.38,210.83 406.94,210.9 C 419.28,210.96 431.63,210.94 443.98,210.91 C 448.86,210.93 454.5,209.69 457.21,205.2 C 460.29,200.04 459.65,193.75 459.68,188 C 459.43,182.06 460.15,175.52 456.76,170.29 C 454,166.12 448.67,164.92 443.98,164.81 C 434.65,164.63 425.31,164.78 415.97,164.73 C 411.47,164.8 406.87,164.41 402.47,165.57 z"
       id="path25"
       style="opacity:1;fill:#035aa1" />
    <path
       d="M 504.12,149.12 C 512.15,142.57 523.02,141.59 532.99,141.37 C 548.86,141.29 564.74,141.21 580.61,141.42 C 589.14,141.76 598.73,142.56 605.21,148.8 C 611.59,155.2 612.38,164.85 612.5,173.4 C 603.42,173.4 594.34,173.39 585.27,173.4 C 585.05,170.4 584.54,166.88 581.75,165.15 C 578.25,163.01 573.96,163.33 570.03,163.2 C 560.04,163.23 550.04,163.13 540.05,163.25 C 535.14,163.37 529.56,164.27 526.35,168.39 C 522.67,173.08 523.13,179.43 523.1,185.04 C 523.37,191.03 522.91,197.09 524.11,203 C 524.71,206.08 526.5,209.08 529.41,210.48 C 533.59,212.58 538.41,212.33 542.96,212.47 C 552.64,212.44 562.31,212.53 571.99,212.42 C 575.57,212.24 579.66,212.02 582.39,209.36 C 584.83,206.86 584.99,203.15 585.2,199.88 C 573.66,199.85 562.13,199.88 550.6,199.86 C 550.58,193.6 550.59,187.33 550.6,181.07 C 571.39,181.06 592.19,181.07 612.99,181.07 C 612.98,190.04 613.06,199.02 612.95,207.99 C 612.81,215.06 611.38,222.92 605.76,227.79 C 599.58,233.22 590.88,233.97 583.02,234.25 C 566,234.4 548.98,234.31 531.96,234.27 C 522.37,233.98 511.93,232.99 504.17,226.76 C 497.13,221.07 494.85,211.59 494.72,202.93 C 494.63,192.95 494.64,182.97 494.71,173 C 494.81,164.31 497.12,154.86 504.12,149.12 z"
       id="path27"
       style="opacity:1;fill:#035aa1" />
    <path
       d="M 206.64,142.42 C 220.9,142.37 235.16,142.29 249.42,142.32 C 259.88,161.85 270.38,181.36 280.87,200.87 C 291.37,181.36 301.85,161.83 312.34,142.31 C 326.58,142.31 340.81,142.31 355.05,142.32 C 355.06,172.65 355.06,202.98 355.05,233.31 C 346.04,233.32 337.02,233.31 328.01,233.31 C 327.98,211.55 328.02,189.78 327.99,168.02 C 315.75,189.79 303.53,211.57 291.25,233.31 C 284.34,233.32 277.42,233.3 270.51,233.33 C 258.21,211.61 246.04,189.82 233.78,168.09 C 233.77,189.83 233.79,211.58 233.77,233.33 C 224.73,233.29 215.69,233.33 206.65,233.31 C 206.64,203.01 206.65,172.71 206.64,142.42 z"
       id="path29"
       style="opacity:1;fill:#035aa1" />
    <path
       d="M 621.5,142.3 C 630.8,142.33 640.1,142.29 649.4,142.32 C 649.38,160.24 649.39,178.15 649.4,196.06 C 649.51,200.17 650.17,204.77 653.41,207.65 C 656.52,210.47 660.95,210.86 664.96,210.92 C 673.97,210.95 682.98,210.93 691.99,210.92 C 696.27,210.89 701.08,210.51 704.29,207.31 C 707.71,203.82 707.88,198.59 707.99,194 C 708.02,176.77 707.98,159.54 708.01,142.31 C 717.28,142.31 726.55,142.31 735.82,142.31 C 735.82,161.89 735.85,181.46 735.8,201.04 C 735.79,209.71 733.81,219.06 727.37,225.31 C 720.17,232.31 709.64,234.09 699.98,234.28 C 685.67,234.33 671.35,234.35 657.04,234.27 C 647.65,234.05 637.48,232.33 630.35,225.71 C 623.86,219.73 621.61,210.56 621.53,202.01 C 621.46,182.11 621.52,162.21 621.5,142.3 z"
       id="path31"
       style="opacity:1;fill:#035aa1" />
    <path
       d="M 746.27,142.3 C 755.57,142.32 764.87,142.3 774.16,142.31 C 774.17,164.85 774.16,187.39 774.17,209.93 C 795.01,209.95 815.86,209.92 836.7,209.94 C 836.7,217.73 836.72,225.53 836.69,233.32 C 806.56,233.31 776.43,233.3 746.3,233.33 C 746.25,202.99 746.3,172.65 746.27,142.3 z"
       id="path33"
       style="opacity:1;fill:#035aa1" />
  </g>
</svg>
