<?xml version="1.0" encoding="UTF-8" standalone="no"?>
<!-- Created with Inkscape (http://www.inkscape.org/) -->

<svg
   xmlns:dc="http://purl.org/dc/elements/1.1/"
   xmlns:cc="http://creativecommons.org/ns#"
   xmlns:rdf="http://www.w3.org/1999/02/22-rdf-syntax-ns#"
   xmlns:svg="http://www.w3.org/2000/svg"
   xmlns="http://www.w3.org/2000/svg"
   version="1.2"
   width="499.99905"
   height="238.26123"
   id="svg2">
  <defs
     id="defs4" />
  <metadata
     id="metadata7">
    <rdf:RDF>
      <cc:Work
         rdf:about="">
        <dc:format>image/svg+xml</dc:format>
        <dc:type
           rdf:resource="http://purl.org/dc/dcmitype/StillImage" />
        <dc:title></dc:title>
      </cc:Work>
    </rdf:RDF>
  </metadata>
  <g
     transform="translate(1277.8166,472.53256)"
     id="layer1">
    <path
       d="m -1081.88,-234.35618 c -0.2148,-0.0329 -0.6191,-0.0969 -0.8985,-0.14205 l -0.5078,-0.0821 0,-1.28198 c 0,-0.70509 0.045,-1.54228 0.097,-1.86042 0.094,-0.56952 0.1077,-0.57916 0.8809,-0.625 0.6513,-0.0386 0.8412,-0.12178 1.1136,-0.48747 0.3188,-0.42815 0.3305,-0.63812 0.4064,-7.26562 l 0.078,-6.82472 2.5001,-0.0461 c 1.3749,-0.0254 2.7316,-0.004 3.0147,0.0474 l 0.5149,0.0936 -0.046,7.53067 -0.046,7.53067 -0.4384,0.8928 c -0.5508,1.12191 -1.6169,2.0795 -2.6597,2.38917 -0.7257,0.21552 -2.9808,0.28927 -4.0113,0.13118 z m 25.6628,-9.3897 0.04,-9.17969 2.8125,0 2.8125,0 0.047,0.82031 c 0.026,0.45118 0.089,0.82031 0.1404,0.82031 0.051,0 0.3328,-0.24668 0.6256,-0.54818 0.989,-1.01831 1.6328,-1.24885 3.4836,-1.24746 1.4238,0.001 1.7428,0.0517 2.4138,0.38335 1.4732,0.72807 2.5693,2.28845 2.9125,4.14667 0.2539,1.37426 0.1149,4.18889 -0.2569,5.2045 -0.8853,2.41768 -3.0425,3.80831 -5.5542,3.58056 -1.1116,-0.1008 -1.9144,-0.47873 -2.628,-1.23725 -0.3075,-0.3268 -0.6118,-0.5943 -0.6763,-0.59444 -0.064,-1.4e-4 -0.1172,1.58178 -0.1172,3.51538 l 0,3.51562 -3.0481,0 -3.0481,0 0.04,-9.17968 z m 8.2878,-0.19671 c 0.6532,-0.5138 0.9319,-2.47908 0.5726,-4.03745 -0.086,-0.37372 -0.2442,-0.7669 -0.351,-0.87376 -0.7691,-0.76911 -1.8533,-0.59614 -2.2527,0.3594 -0.2895,0.69253 -0.3205,3.01384 -0.051,3.82995 0.3322,1.00669 1.2956,1.34066 2.0822,0.72186 z m -224.6537,3.93255 c -1.4556,-0.37489 -2.3435,-0.84425 -3.2551,-1.72075 -0.9776,-0.94002 -1.4293,-1.84478 -1.6715,-3.34777 -0.6439,-3.99618 1.1754,-6.81918 5.0216,-7.79179 1.1196,-0.28313 1.5944,-0.3155 3.567,-0.24322 1.2515,0.0459 2.5821,0.17019 2.9568,0.27628 l 0.6814,0.19288 -0.1117,1.81254 c -0.061,0.99691 -0.1285,1.83088 -0.1491,1.85328 -0.021,0.0224 -0.3473,-0.0705 -0.726,-0.20648 -0.3786,-0.13597 -1.1475,-0.25602 -1.7086,-0.26678 -1.3408,-0.0257 -2.2323,0.44012 -2.7714,1.44816 -0.4991,0.93303 -0.4342,2.51534 0.1378,3.36051 0.8693,1.28433 2.8441,1.53051 5.021,0.62592 0.2519,-0.10467 0.2734,0.0403 0.2734,1.83953 l 0,1.95314 -0.9765,0.19119 c -1.7092,0.33462 -5.0326,0.34697 -6.2891,0.0234 z m 53.2259,0.042 c -1.9454,-0.52333 -2.9354,-1.88833 -2.8079,-3.87139 0.1263,-1.96531 1.2848,-3.30366 3.4883,-4.02986 0.9245,-0.30472 1.426,-0.36111 3.2421,-0.36461 2.0648,-0.004 2.1485,-0.0167 2.1485,-0.32647 0,-0.17728 -0.2034,-0.51714 -0.4519,-0.75523 -0.3578,-0.34281 -0.6724,-0.46027 -1.5114,-0.56433 -1.2827,-0.15906 -3.5597,0.14295 -4.5998,0.61013 l -0.7026,0.31556 -0.099,-0.97003 c -0.054,-0.5335 -0.1072,-1.33115 -0.1172,-1.77252 l -0.018,-0.80251 1.7724,-0.3303 c 1.2343,-0.23005 2.3983,-0.33031 3.8347,-0.33031 4.0167,0 6.1815,0.84776 7.2255,2.82963 0.3902,0.74072 0.3887,0.7181 0.4868,7.52199 l 0.04,2.7735 -2.9297,-6e-5 -2.9297,-7e-5 0,-0.6939 c 0,-0.86366 -0.2173,-1.01339 -0.7549,-0.52018 -1.5506,1.42263 -3.2591,1.8343 -5.3161,1.28096 z m 5.2095,-3.37436 c 0.4999,-0.39328 0.8615,-1.16702 0.8615,-1.84375 0,-0.46198 -0.018,-0.4736 -0.7422,-0.46691 -0.8489,0.008 -1.796,0.3066 -2.2369,0.70563 -0.3027,0.27389 -0.4069,1.07886 -0.1826,1.41025 0.4069,0.60119 1.6497,0.70642 2.3002,0.19478 z m 21.6886,3.38655 c -2.0564,-0.47321 -3.7592,-1.73941 -4.4698,-3.32371 -0.5138,-1.14575 -0.7734,-2.77628 -0.6367,-3.99936 0.3054,-2.73162 1.5863,-4.40342 4.1569,-5.42517 1.1741,-0.46668 4.3302,-0.59481 5.7164,-0.23206 2.8028,0.73354 4.1979,2.72161 4.3656,6.22154 l 0.081,1.67969 -4.1607,0 -4.1607,0 0,0.40265 c 0,0.5556 0.7419,1.25099 1.5769,1.47804 0.9884,0.26878 3.8918,0.11227 5.0099,-0.27006 l 0.8837,-0.30216 0.1107,1.54671 c 0.061,0.85068 0.049,1.60843 -0.026,1.6839 -0.5853,0.58528 -6.5831,0.96874 -8.4463,0.53999 z m 3.793,-8.90449 c -0.1483,-0.79081 -0.6133,-1.17458 -1.4231,-1.17458 -0.8276,0 -1.2239,0.32432 -1.4673,1.2008 -0.3176,1.14395 -0.3376,1.12664 1.3562,1.17636 1.5055,0.0442 1.524,0.0403 1.5753,-0.33152 0.028,-0.20693 0.01,-0.59892 -0.041,-0.87106 z m 9.8674,8.91463 c -1.2419,-0.35827 -2.1908,-1.24432 -2.5886,-2.41721 -0.1215,-0.35792 -0.1802,-2.18226 -0.1802,-5.59397 l 0,-5.06282 3.0078,0.0471 3.0078,0.0471 0.078,4.34875 c 0.073,4.07509 0.097,4.3627 0.3815,4.57031 0.53,0.38714 1.2187,0.25063 1.537,-0.30463 0.1312,-0.229 0.2154,-1.62807 0.269,-4.47381 l 0.078,-4.14062 2.9687,0 2.9688,0 0.041,6.44884 0.041,6.44884 -2.8533,-0.0426 -2.8533,-0.0426 -0.047,-0.82828 -0.048,-0.82827 -0.8267,0.75557 c -0.4547,0.41554 -1.1013,0.84397 -1.4369,0.95201 -0.944,0.30394 -2.6949,0.36138 -3.5445,0.1163 z m 50.9803,0.0109 c -0.8607,-0.25007 -1.3402,-0.49659 -1.9522,-1.00372 -2.6343,-2.18254 -2.7668,-8.28282 -0.2349,-10.81465 0.971,-0.97106 2.0782,-1.40756 3.5596,-1.40334 1.4538,0.004 2.3071,0.33936 3.2768,1.2874 l 0.6641,0.64922 0,-3.54815 0,-3.54816 3.0469,0 3.0468,0 0,7.24109 c 0,3.98259 0.046,8.09588 0.1022,9.14062 l 0.1021,1.89954 -2.817,0 -2.8169,0 -0.098,-0.48828 c -0.054,-0.26855 -0.098,-0.67213 -0.098,-0.89683 0,-0.40044 -0.013,-0.3956 -0.6335,0.24403 -0.9127,0.94036 -1.788,1.31544 -3.2357,1.38647 -0.7153,0.0351 -1.4965,-0.0242 -1.913,-0.14524 z m 4.9518,-4.09711 c 0.424,-0.46206 0.5783,-1.4337 0.4846,-3.05231 -0.089,-1.53929 -0.4051,-2.06635 -1.2833,-2.14056 -0.7675,-0.0649 -1.2378,0.26489 -1.4665,1.02822 -0.2709,0.90414 -0.2341,2.87793 0.068,3.63212 0.4335,1.08339 1.4632,1.33291 2.1976,0.53253 z m 19.3148,4.01058 c -1.8098,-0.61702 -2.621,-1.76032 -2.6148,-3.6855 0,-1.38503 0.5301,-2.40678 1.6733,-3.25264 1.2643,-0.93536 2.4783,-1.24373 5.0352,-1.27894 l 2.1875,-0.0301 -0.054,-0.37542 c -0.1117,-0.77269 -0.6266,-1.08289 -2.0499,-1.23502 -1.2669,-0.1354 -3.0584,0.0711 -4.1213,0.4751 -0.4431,0.16844 -0.8936,0.30627 -1.001,0.30631 -0.1442,6e-5 -0.1953,-0.44297 -0.1953,-1.69458 l 0,-1.69464 1.2109,-0.28116 c 0.8096,-0.18798 2.0913,-0.3046 3.8672,-0.35191 2.3186,-0.0618 2.8206,-0.0297 3.949,0.25262 2.0857,0.52175 3.1335,1.29279 3.8492,2.83225 0.3043,0.65458 0.3304,1.02409 0.3781,5.35156 l 0.051,4.64844 -2.981,0 -2.981,0 0,-0.78125 c 0,-0.56986 -0.06,-0.78125 -0.2213,-0.78125 -0.1217,0 -0.2448,0.0559 -0.2734,0.12433 -0.029,0.0684 -0.3968,0.38523 -0.8181,0.70412 -1.3607,1.03003 -3.2256,1.31516 -4.8902,0.74767 z m 5.1839,-3.16545 c 0.6748,-0.30745 1.0992,-1.20814 1.0365,-2.19973 -0.038,-0.60208 -2.5772,-0.14007 -3.0661,0.5579 -0.7892,1.12677 0.6337,2.27785 2.0296,1.64183 z m 28.1555,3.25053 c -1.8095,-0.51048 -2.8257,-1.83253 -2.8257,-3.6763 0,-3.09287 2.9349,-4.92818 7.4416,-4.65362 l 1.5317,0.0933 -0.101,-0.42323 c -0.2026,-0.84872 -0.6206,-1.11017 -2.0605,-1.28874 -1.2083,-0.14986 -3.2962,0.1262 -4.5209,0.59775 l -0.8203,0.31586 0,-1.76051 0,-1.76052 0.8984,-0.17648 c 2.11,-0.41449 2.8617,-0.49108 4.7944,-0.4885 4.0192,0.005 6.1982,0.92282 7.1401,3.0064 0.3587,0.7935 0.3717,0.96374 0.4178,5.46744 l 0.048,4.64844 -2.9774,0 -2.9773,0 0,-0.78125 c 0,-0.42969 -0.038,-0.78125 -0.085,-0.78125 -0.047,0 -0.4541,0.27881 -0.9055,0.61959 -0.4513,0.34077 -1.0942,0.73391 -1.4286,0.87362 -0.8294,0.34657 -2.6355,0.43157 -3.5697,0.16799 z m 4.9695,-3.25053 c 0.5361,-0.24425 0.9846,-1.00266 1.0467,-1.77005 l 0.051,-0.625 -1.0217,0.0108 c -1.1414,0.0119 -1.8865,0.34184 -2.1682,0.95996 -0.2527,0.5547 -0.2098,0.80014 0.214,1.22394 0.4268,0.42678 1.2006,0.50934 1.8786,0.20044 z m 28.3717,3.21512 c -1.0131,-0.27231 -1.7441,-0.79643 -2.3158,-1.66023 -0.3279,-0.49561 -0.4329,-0.86986 -0.4806,-1.71306 -0.054,-0.96031 -0.01,-1.18783 0.4269,-2.06984 0.9871,-2.0051 2.866,-2.82525 6.4622,-2.82085 1.8957,0.002 1.992,-0.0128 1.9873,-0.3125 -0.018,-1.13731 -1.8152,-1.64378 -4.4367,-1.25025 -0.7804,0.11714 -1.7333,0.35377 -2.1176,0.52584 -0.3844,0.17208 -0.7088,0.29944 -0.7209,0.28303 -0.012,-0.0164 -0.07,-0.81276 -0.1282,-1.76971 l -0.1062,-1.73992 1.8999,-0.35021 c 1.6369,-0.30173 2.2489,-0.33908 4.4213,-0.26981 1.9219,0.0613 2.7294,0.15201 3.3959,0.38155 1.9533,0.67264 3.0683,1.71522 3.4094,3.18812 0.087,0.37753 0.1798,2.67275 0.2053,5.10048 l 0.047,4.41407 -2.9318,0 -2.9319,0 0,-0.78125 c 0,-0.82735 -0.2312,-1.02138 -0.6359,-0.53369 -0.3515,0.42356 -1.481,1.13578 -2.196,1.38479 -0.8495,0.29585 -2.1377,0.29326 -3.253,-0.007 z m 5.2234,-3.37078 c 0.5,-0.39328 0.8616,-1.16701 0.8616,-1.84375 0,-0.46198 -0.018,-0.47359 -0.7422,-0.4669 -1.4868,0.0137 -2.5391,0.63144 -2.5391,1.49039 0,1.04247 1.4936,1.54878 2.4197,0.82026 z m 56.66324,3.38992 c -3.74194,-0.85223 -5.50648,-3.22696 -5.29185,-7.12185 0.0701,-1.2725 0.16291,-1.68788 0.56555,-2.53154 1.1458,-2.40077 3.50838,-3.55404 7.28087,-3.55404 3.68171,0 6.01181,1.09109 7.10478,3.32687 0.62203,1.27241 0.87108,3.01761 0.64164,4.49635 -0.42268,2.72431 -2.02392,4.4909 -4.76034,5.25188 -1.19334,0.33187 -4.33508,0.4069 -5.54065,0.13233 z m 3.30296,-3.79337 c 0.42481,-0.47056 0.62983,-1.67869 0.5451,-3.21214 -0.0918,-1.6608 -0.30108,-2.21981 -0.91066,-2.4323 -1.12314,-0.39153 -1.59311,0.26872 -1.68049,2.36092 -0.0806,1.92998 0.0559,2.85179 0.48091,3.24775 0.41158,0.38346 1.23429,0.40226 1.56514,0.0358 z m 24.95783,3.78872 c -3.42108,-0.69177 -5.3125,-2.95899 -5.3125,-6.36806 0,-2.86885 1.05917,-4.80965 3.2352,-5.9281 1.52052,-0.78153 2.48167,-0.96044 4.67381,-0.87001 2.40336,0.0992 3.37265,0.45239 4.59897,1.67606 1.23102,1.22835 1.86367,3.0977 1.86611,5.51391 l 0.001,0.89843 -4.21875,0 c -4.62866,0 -4.48623,-0.033 -3.99127,0.92419 0.42314,0.81825 1.15478,1.03006 3.52252,1.01975 1.75547,-0.008 2.24567,-0.0636 2.92169,-0.33352 0.44678,-0.17837 0.85107,-0.28557 0.89843,-0.2382 0.0474,0.0474 0.0861,0.80149 0.0861,1.67583 l 0,1.58972 -0.82031,0.18201 c -2.30486,0.51141 -5.63777,0.62664 -7.46094,0.25799 z m 3.75,-8.19516 c 0,-0.62292 -0.41225,-1.52887 -0.78697,-1.72942 -0.1753,-0.0938 -0.61257,-0.14908 -0.97172,-0.12281 -0.54292,0.0397 -0.71311,0.13723 -1.00966,0.57867 -0.42978,0.63978 -0.492,1.68463 -0.10492,1.76231 0.13845,0.0278 0.84158,0.0277 1.5625,-3e-5 l 1.31077,-0.0505 0,-0.43819 z m 9.29687,8.29233 c -3.01408,-0.7952 -3.97512,-3.92981 -2.00112,-6.52695 0.93526,-1.2305 3.89626,-2.07588 6.55512,-1.8715 1.28927,0.0991 1.30538,0.0959 1.30538,-0.26133 0,-0.77317 -0.66066,-1.20845 -2.06871,-1.36302 -1.30767,-0.14354 -3.17001,0.10638 -4.45473,0.5978 l -0.82031,0.3138 0,-0.82145 c 0,-0.4518 -0.044,-1.24216 -0.0977,-1.75637 l -0.0977,-0.9349 0.91803,-0.17759 c 2.40766,-0.46577 3.23345,-0.53455 5.53716,-0.46113 2.71722,0.0866 3.80849,0.34589 5.04971,1.19988 1.70324,1.17184 1.9641,2.20365 1.96853,7.78626 l 0.003,4.10156 -2.96875,0 -2.96875,0 0,-0.78125 c 0,-0.91889 -0.20167,-0.999 -0.83937,-0.33337 -0.78025,0.8144 -2.01769,1.31906 -3.35641,1.36883 -0.65715,0.0244 -1.40578,-0.0112 -1.66359,-0.0793 z m 4.98205,-3.46999 c 0.55464,-0.43626 0.87733,-1.09617 0.87733,-1.79409 l 0,-0.57342 -0.89844,0.0652 c -1.65968,0.12036 -2.58463,0.8658 -2.33053,1.87819 0.18918,0.7538 1.60739,1.00959 2.35164,0.42415 z m 32.33457,3.44437 c -0.90264,-0.17847 -1.48275,-0.50602 -2.05939,-1.16277 -0.95692,-1.08988 -0.96872,-1.17663 -0.9234,-6.78411 l 0.0412,-5.09306 2.78756,-0.0287 c 1.53316,-0.0158 2.88353,0.008 3.00081,0.0531 0.17136,0.0658 0.22231,0.91791 0.25931,4.33702 0.0404,3.73611 0.0781,4.28715 0.30834,4.51721 0.44627,0.44585 1.24796,0.31165 1.57801,-0.26415 0.13125,-0.229 0.2154,-1.62808 0.26909,-4.47381 l 0.0781,-4.14063 2.96876,0 2.96874,0 0.0408,6.44531 0.0408,6.44532 -2.89236,0 -2.89236,0 -0.001,-0.89844 -10e-4,-0.89844 -0.55734,0.58803 c -1.20583,1.27224 -2.99605,1.75716 -5.01396,1.35816 z m 15.61241,-0.0907 c -2.24193,-0.346 -2.22591,-0.33507 -2.22591,-1.51737 0,-0.54872 0.0434,-1.314 0.0963,-1.70062 l 0.0964,-0.70294 1.11458,0.3885 c 1.35219,0.47129 4.14763,0.658 4.77113,0.31864 1.2442,-0.67716 0.6191,-1.32216 -1.83899,-1.8975 -1.57884,-0.36955 -2.84839,-0.87861 -3.46391,-1.38892 -0.70542,-0.58488 -0.99623,-1.26369 -0.98515,-2.29963 0.0128,-1.19847 0.29634,-1.92648 1.01773,-2.6133 1.4153,-1.3474 3.35704,-1.84985 6.67463,-1.72715 1.25559,0.0465 2.6959,0.17261 3.20069,0.28036 l 0.91779,0.19592 -0.0719,1.6156 c -0.0395,0.88857 -0.10095,1.64331 -0.13653,1.67718 -0.0356,0.0339 -0.59203,-0.0785 -1.23656,-0.24975 -1.58816,-0.42194 -3.83825,-0.46394 -4.42069,-0.0825 -0.95182,0.62329 -0.30735,1.11585 2.12997,1.62795 2.76963,0.5819 3.8732,1.30114 4.32856,2.82105 0.25064,0.83656 -0.0219,2.33339 -0.57796,3.17357 -1.28629,1.94369 -4.97822,2.76184 -9.39022,2.08092 z m 14.64909,0.15288 c -0.21485,-0.0321 -1.04616,-0.17517 -1.84738,-0.31791 l -1.45675,-0.25951 0.10899,-1.73113 c 0.0599,-0.95212 0.12545,-1.75047 0.14558,-1.7741 0.0201,-0.0237 0.36654,0.0984 0.76982,0.27131 1.93479,0.82934 5.37489,0.83849 5.63627,0.015 0.21927,-0.69086 -0.31872,-1.01342 -2.48286,-1.48868 -3.09317,-0.67928 -4.31117,-1.7621 -4.31117,-3.83278 0,-1.55832 0.66786,-2.51013 2.36462,-3.36995 1.3726,-0.69554 2.617,-0.88747 5.2135,-0.80411 1.28907,0.0414 2.74805,0.16344 3.24219,0.27124 l 0.89844,0.19596 0,1.71389 c 0,1.42613 -0.0377,1.69944 -0.22461,1.62773 -1.07586,-0.41286 -3.82151,-0.78988 -4.74441,-0.65147 -0.83785,0.12564 -1.35697,0.58278 -1.13428,0.99887 0.19585,0.36596 0.71485,0.56497 2.27517,0.87247 1.86722,0.36797 2.48846,0.58451 3.28231,1.14408 1.21741,0.85811 1.59679,2.19674 1.09718,3.87137 -0.46849,1.57033 -1.91494,2.62389 -4.27252,3.11202 -1.0278,0.21279 -3.54358,0.28767 -4.56009,0.1357 z m 21.39668,-0.10306 c -1.2517,-0.3538 -2.37975,-1.32563 -2.64433,-2.27813 -0.28114,-1.01211 -0.18763,-2.522 0.20351,-3.28676 0.50456,-0.9865 1.57878,-1.83183 2.93845,-2.31233 1.01342,-0.35813 1.41537,-0.40986 3.32962,-0.42858 2.35383,-0.023 2.51508,-0.0865 2.04422,-0.80512 -0.41293,-0.63024 -1.19237,-0.86477 -2.87728,-0.8658 -1.19563,0 -1.76634,0.0837 -2.81077,0.41598 -1.06221,0.33793 -1.33559,0.37733 -1.44292,0.20802 -0.0728,-0.11489 -0.13348,-0.88444 -0.13479,-1.71009 l -0.002,-1.50121 1.28906,-0.27496 c 1.68271,-0.35896 5.87759,-0.50074 7.18787,-0.24296 2.22901,0.43853 3.5361,1.26405 4.30275,2.71753 l 0.42344,0.8028 0.0494,4.72656 0.0494,4.72656 -2.97906,0 -2.97907,0 0,-0.87392 0,-0.87392 -0.76665,0.64187 c -0.42166,0.35304 -1.10721,0.79286 -1.52344,0.9774 -0.92203,0.40876 -2.65259,0.52095 -3.65697,0.23706 z m 5.39824,-3.54414 c 0.38094,-0.35788 0.81057,-1.73597 0.63153,-2.02567 -0.15216,-0.24621 -1.3361,-0.1968 -2.1807,0.091 -0.58988,0.20099 -0.79313,0.36408 -0.9643,0.77377 -0.26463,0.63331 -0.0787,1.25239 0.44284,1.47421 0.56664,0.24103 1.65602,0.0762 2.07063,-0.3133 z m 19.60965,3.50912 c -0.90498,-0.29117 -1.7895,-1.02372 -2.22942,-1.84639 -0.33872,-0.6334 -0.34703,-0.77431 -0.34703,-5.88333 l 0,-5.23437 2.96875,0 2.96875,0 0.0781,4.34873 c 0.0732,4.07508 0.0972,4.36269 0.38143,4.57032 0.52996,0.38715 1.21871,0.25065 1.53698,-0.30462 0.13125,-0.229 0.2154,-1.62807 0.26909,-4.47381 l 0.0781,-4.14062 3.00781,-0.0302 3.00781,-0.0302 0.002,6.12398 c 0.001,3.36819 0.0445,6.28219 0.0963,6.47555 l 0.0942,0.35156 -2.98698,0 -2.98697,0 0,-0.87719 0,-0.8772 -0.58594,0.58275 c -1.25059,1.24378 -3.63425,1.79819 -5.35323,1.24511 z m 17.03292,0.13724 c -0.21484,-0.0326 -1.05108,-0.17194 -1.85831,-0.30969 l -1.46767,-0.25046 0.10512,-1.73095 c 0.0578,-0.95203 0.13167,-1.7575 0.16409,-1.78994 0.0325,-0.0324 0.28252,0.0566 0.55572,0.19791 1.16727,0.60363 4.20418,0.91074 5.28385,0.53436 0.26712,-0.0931 0.53271,-0.31751 0.59022,-0.49865 0.17695,-0.55755 -0.51494,-0.98005 -2.23177,-1.36284 -2.10198,-0.46867 -3.51359,-1.12757 -4.03859,-1.88513 -0.76275,-1.10068 -0.83507,-2.36638 -0.20663,-3.61672 0.57655,-1.1471 1.95535,-2.00734 3.85405,-2.40459 1.17264,-0.24537 4.65931,-0.29332 5.49992,-0.0757 0.30078,0.0779 0.88086,0.18726 1.28906,0.24308 l 0.74219,0.10146 0,1.22091 c 0,0.67148 -0.0423,1.43238 -0.094,1.69084 l -0.094,0.46996 -0.79612,-0.21002 c -2.32287,-0.61276 -4.38767,-0.63155 -4.97397,-0.0453 -0.63521,0.63522 0.19238,1.12919 2.59871,1.55111 3.08446,0.54085 4.48062,2.08489 3.99801,4.4215 -0.40569,1.96411 -1.81931,3.11455 -4.44423,3.61678 -1.10727,0.21184 -3.48632,0.28202 -4.47566,0.13199 z m 13.08351,-0.059 c -2.07189,-0.52039 -3.17485,-1.93485 -3.04245,-3.90166 0.13659,-2.02907 1.18108,-3.27968 3.39644,-4.0667 0.87016,-0.30912 1.33453,-0.36264 3.24217,-0.37361 2.11983,-0.0122 2.2263,-0.0278 2.2216,-0.32531 -0.0168,-1.06072 -1.72294,-1.59886 -4.13565,-1.30445 -0.60156,0.0734 -1.53768,0.28112 -2.08029,0.46159 -0.5426,0.18045 -1.0076,0.3033 -1.03333,0.27298 -0.0257,-0.0303 -0.0928,-0.79582 -0.14902,-1.70111 l -0.10223,-1.64599 1.29181,-0.28457 c 1.68453,-0.37107 6.05231,-0.52612 7.28658,-0.25867 2.29487,0.49728 3.27575,1.07591 4.11765,2.42897 0.59612,0.95801 0.74696,2.29383 0.74696,6.61436 l 0,3.93251 -2.96875,0 -2.96875,0 0,-0.7552 c 0,-0.41537 -0.0459,-0.80113 -0.10203,-0.85725 -0.0561,-0.0561 -0.39009,0.1635 -0.74219,0.48802 -0.97761,0.90107 -1.98158,1.3226 -3.28003,1.3772 -0.61056,0.0256 -1.37489,-0.0198 -1.69849,-0.10111 z m 4.94541,-3.44671 c 0.55006,-0.43267 0.87733,-1.09492 0.87733,-1.77531 0,-0.54848 -0.007,-0.55462 -0.66406,-0.55376 -1.51535,0.002 -2.61719,0.65167 -2.61719,1.54318 0,0.98616 1.5183,1.48254 2.40392,0.78589 z m -478.92853,-5.80651 0.04,-9.10156 3.0859,-0.0423 3.086,-0.0424 0,3.558 0,3.55798 0.4828,-0.51522 c 0.9789,-1.04444 1.6412,-1.33655 3.1913,-1.40753 1.2396,-0.0568 1.5221,-0.0173 2.3362,0.32598 0.6537,0.27566 1.0567,0.57068 1.3697,1.0028 0.8019,1.10705 0.8958,1.84341 0.8979,7.03928 l 0,4.72656 -3.125,0 -3.125,0 0,-4.29687 c 0,-4.08855 -0.015,-4.31203 -0.3125,-4.60938 -0.3925,-0.39249 -0.7985,-0.39696 -1.2718,-0.0141 l -0.3688,0.2985 -0.046,4.31087 -0.046,4.31089 -3.1192,0 -3.1192,0 0.04,-9.10156 z m 16.8745,2.65625 0.041,-6.44531 2.9688,0 2.9687,0 0.041,6.44531 0.041,6.44531 -3.0503,0 -3.0504,0 0.041,-6.44531 z m 8.4002,0.11719 c 0,-3.48047 -0.018,-6.38086 -0.039,-6.44531 -0.068,-0.20269 5.3611,-0.22565 5.6044,-0.0237 0.1315,0.1091 0.2159,0.48738 0.2159,0.96727 l 0,0.78812 0.586,-0.63038 c 0.9106,-0.97976 1.7598,-1.34082 3.3421,-1.42102 2.1607,-0.10952 3.4843,0.4838 4.2428,1.90187 0.3329,0.6223 0.3463,0.82535 0.3915,5.91785 l 0.047,5.27343 -3.0546,0 -3.0546,0 0,-4.03918 c 0,-4.39074 -0.078,-4.9307 -0.741,-5.09699 -0.4956,-0.12439 -1.1544,0.31263 -1.31,0.869 -0.058,0.20711 -0.1123,2.15194 -0.1209,4.32186 l -0.015,3.94531 -3.0469,0 -3.0468,0 0,-6.32812 z m 81.8749,-0.15625 0,-6.48438 3.0469,0 3.0469,0 0,6.48438 0,6.48437 -3.0469,0 -3.0469,0 z m 8.4376,0 0,-6.48438 2.539,0.002 c 3.3162,0.003 3.2422,-0.0206 3.2422,1.02587 l 0,0.83533 0.7077,-0.68777 c 0.9316,-0.90545 2.0736,-1.33183 3.5672,-1.33183 0.6505,0 1.4643,0.11111 1.8992,0.2593 1.0097,0.34406 2.0079,1.36909 2.2432,2.30348 0.1125,0.44688 0.1764,2.48636 0.1764,5.63141 l 0,4.93081 -3.0468,0 -3.0469,0 0,-4.15089 c 0,-2.53047 -0.062,-4.26748 -0.1598,-4.44955 -0.4314,-0.806 -1.4198,-0.67698 -1.8009,0.23505 -0.1778,0.42539 -0.2268,1.38878 -0.2268,4.45408 l 0,3.91126 -3.0469,0 -3.0468,0 0,-6.48437 z m 33.9435,0.0391 0.041,-6.44531 3.0469,0 3.0469,0 0.041,6.44531 0.041,6.44532 -3.1285,0 -3.1285,0 0.041,-6.44532 z m 91.1893,0.19532 c -0.013,-3.4375 -0.03,-6.33789 -0.039,-6.44532 -0.012,-0.14774 0.6371,-0.2057 2.6649,-0.23799 3.0625,-0.0488 3.1788,-0.008 3.1788,1.102 l 0,0.64637 0.6641,-0.63905 c 0.9037,-0.86973 2.125,-1.30136 3.6777,-1.29981 1.0455,0.001 1.339,0.0683 2.2164,0.50782 0.9196,0.46067 1.0578,0.5964 1.5235,1.49682 l 0.5121,0.99021 0,5.06448 0,5.06447 -3.0469,0 -3.0469,0 0,-4.05233 c 0,-2.27408 -0.067,-4.22944 -0.1534,-4.45592 -0.188,-0.49444 -0.7996,-0.75627 -1.3118,-0.56155 -0.6338,0.24098 -0.7223,0.86671 -0.7223,5.10873 l 0,3.96107 -3.0468,0 -3.0469,0 -0.023,-6.25 z m 25.17964,-2.89063 0,-9.14062 3.04687,0 3.04687,0 0,5.15625 c 0,2.83594 0.0527,5.15512 0.11719,5.15373 0.0644,-0.001 0.8178,-1.07364 1.67409,-2.38281 0.8563,-1.30915 1.62974,-2.43195 1.71875,-2.49509 0.21366,-0.15155 6.60711,-0.15383 6.6985,-0.002 0.0389,0.0645 -0.80089,1.3125 -1.8662,2.77343 -1.06531,1.46094 -1.97792,2.74023 -2.02801,2.84288 -0.0825,0.16912 1.93942,3.62586 3.1354,5.36025 0.26666,0.38671 0.63783,0.96679 0.8248,1.28906 l 0.33994,0.58594 -3.56902,0 -3.56901,0 -0.9393,-1.67969 c -0.51661,-0.92383 -1.20108,-2.17188 -1.52103,-2.77344 -1.02347,-1.92423 -1.0161,-1.93476 -1.0161,1.45089 l 0,3.00224 -3.04687,0 -3.04687,0 0,-9.14063 z m 34.84374,4.16463 c 0,-2.7368 -0.0457,-5.61961 -0.10151,-6.40625 l -0.10153,-1.43025 2.91402,0 2.91402,0 0,1.09375 c 0,0.625 0.067,1.09375 0.15625,1.09375 0.0859,0 0.15625,-0.0733 0.15625,-0.16294 0,-0.25042 1.4198,-1.71104 1.90923,-1.96414 0.59063,-0.30542 1.82118,-0.5225 2.36407,-0.41705 l 0.44517,0.0865 -0.0883,1.97102 c -0.0485,1.08406 -0.0907,2.23334 -0.0936,2.55396 l -0.005,0.58294 -0.70089,-0.0961 c -1.47264,-0.20184 -3.12186,0.71694 -3.4895,1.94402 -0.1117,0.37282 -0.18461,1.70428 -0.18461,3.37147 l 0,2.75531 -3.04688,0 -3.04687,0 0,-4.976 z m 51.40624,-0.70531 c 0,-3.12474 -0.0447,-6.00755 -0.0994,-6.40625 l -0.0994,-0.72494 2.91186,0 2.91185,0 0.0156,0.74219 c 0.009,0.4082 0.0613,0.90108 0.11719,1.09528 0.0947,0.32906 0.13884,0.30289 0.64848,-0.38446 0.97859,-1.31981 2.33889,-1.9642 3.78906,-1.79492 0.42099,0.0491 0.42967,0.0713 0.42888,1.09447 0,0.57438 -0.0459,1.72533 -0.10103,2.55767 l -0.10022,1.51336 -0.71928,-0.0849 c -1.55421,-0.18345 -3.06383,0.72247 -3.43563,2.06169 -0.095,0.34222 -0.17293,1.83267 -0.1734,3.31679 l -10e-4,2.69532 -3.04688,0 -3.04687,0 0,-5.68131 z m 56.09375,-0.81108 0,-6.49241 3.00781,0.0471 3.00781,0.0471 0.0408,6.44531 0.0408,6.44532 -3.0486,0 -3.04861,0 0,-6.49239 z m -391.28897,-8.12994 c -0.064,-0.0645 -0.1172,-0.91413 -0.1172,-1.88809 l 0,-1.77083 3.0518,0 3.0518,0 -0.044,1.83593 -0.044,1.83594 -2.8906,0.0522 c -1.5899,0.0287 -2.9434,0 -3.0078,-0.0651 z m 90.1952,-1.78392 0,-1.875 3.0469,0 3.0469,0 0,1.875 0,1.875 -3.0469,0 -3.0469,0 z m 42.4512,1.77411 c -0.059,-0.0591 -0.1074,-0.90432 -0.1074,-1.87828 l 0,-1.77083 3.13,0 3.1299,0 -0.044,1.83593 -0.044,1.83594 -2.9785,0.0423 c -1.6382,0.0233 -3.0269,-0.006 -3.086,-0.0651 z m 33.278,-0.003 c -0.057,-0.0573 -0.1041,-0.90103 -0.1041,-1.875 l 0,-1.77083 3.0468,0 3.0469,0 0,1.77866 c 0,1.71244 -0.013,1.78216 -0.3516,1.87286 -0.4813,0.129 -5.5084,0.12392 -5.638,-0.006 z m 225.36457,-1.76281 0,-1.88302 3.05182,0 3.05185,0 -0.044,1.83594 -0.044,1.83594 -3.00781,0.0471 -3.00781,0.0471 0,-1.88303 z m -422.49907,-24.57832 c 0,-6.51862 0.8178,-16.82008 1.9644,-24.80469 3.7743,-26.28423 12.5263,-50.68392 26.3133,-73.35937 0.627,-1.03125 1.2864,-2.12109 1.4655,-2.42187 0.6129,-1.03005 5.7264,-8.61866 6.7025,-9.94691 3.0613,-4.16544 8.5749,-11.24066 9.1735,-11.77184 0.049,-0.043 0.2901,-0.32422 0.537,-0.625 3.0553,-3.72175 11.0023,-12.07233 15.0196,-15.78231 2.0537,-1.89646 2.9659,-2.7321 3.7514,-3.43643 1.6625,-1.49059 3.141,-2.78886 3.6657,-3.21874 0.3007,-0.24646 0.582,-0.49053 0.6249,-0.54236 0.1954,-0.23565 7.4428,-5.96968 8.8339,-6.98919 0.8562,-0.6275 2.3302,-1.70856 3.2756,-2.40235 4.8821,-3.58322 13.38,-8.92221 19.7656,-12.41825 20.4308,-11.18571 42.5663,-18.55095 65.625,-21.83574 15.4291,-2.19795 32.1732,-2.56852 46.7577,-1.03482 0.838,0.0881 2.209,0.23127 3.0469,0.31813 1.876,0.19448 8.7877,1.16989 10.9766,1.54908 9.9134,1.71727 19.9195,4.2766 29.6166,7.57521 4.3522,1.48044 11.5341,4.22941 13.899,5.32001 0.2578,0.11889 1.1367,0.50765 1.9531,0.8639 2.2219,0.96955 4.2459,1.92644 7.96878,3.76738 14.58066,7.21007 28.61362,16.61387 41.32813,27.69488 2.73263,2.38157 9.13904,8.40158 10.61441,9.9742 0.5098,0.54341 1.59964,1.69189 2.42188,2.55217 2.09522,2.19219 3.21516,3.40822 4.38751,4.76398 0.55735,0.64453 1.05145,1.20703 1.09804,1.25 0.36029,0.33237 3.39112,3.95113 4.9074,5.85938 1.0243,1.28906 2.11586,2.66015 2.4257,3.04687 3.56008,4.44331 9.17786,12.65459 12.75691,18.64626 0.72708,1.21721 1.38547,2.31858 1.46309,2.44749 3.52733,5.85848 8.13838,15.09432 11.19422,22.42187 0.64509,1.54687 1.3382,3.19922 1.54022,3.67187 1.06978,2.5029 4.17072,11.39339 5.2319,15 1.54146,5.23887 1.5458,5.25442 2.36266,8.4375 3.69695,14.40613 5.53395,28.01578 6.01598,44.57031 l 0.10805,3.71093 -50.21892,0 c 0,0 -1.10163,-19.77869 1.35746,-26.09374 0.76534,-1.96328 2.94793,-4.55598 4.75531,-5.64883 2.57075,-1.55444 4.73204,-2.08701 8.43758,-2.07918 2.23557,0.005 2.73062,0.0529 3.7259,0.36218 0.63128,0.1962 1.1685,0.33417 1.19381,0.3066 0.3384,-8.72836 0.74981,-22.88861 0.74981,-22.88861 l -0.99884,-0.22139 c -1.24372,-0.27567 -4.98172,-0.27668 -6.38778,-0.002 -5.58508,1.09214 -10.34969,4.99475 -13.59181,11.13281 l -0.73502,1.39154 -0.10305,-3.07682 c -0.0951,-2.72823 -0.10304,-8.18282 -0.10304,-8.18282 l -25.81272,0 0.35654,55 -10.75709,0 -0.0938,-1.13281 c -0.0516,-0.62305 -0.20618,-3.83985 -0.34344,-7.14844 -0.13728,-3.30859 -0.27447,-6.0972 -0.30486,-6.19692 -0.0357,-0.11722 -0.79062,0.11468 -2.13586,0.65615 -4.62291,1.86074 -9.10398,2.58853 -16.06497,2.60918 -4.74559,0.0141 -7.36429,-0.33689 -9.84349,-1.31925 -3.2852,-1.30177 -5.169,-3.53633 -5.5383,-6.56947 l -0.1094,-0.89844 37.36619,0 -10e-4,-3.47656 c -0.002,-4.06343 -0.16968,-6.33067 -0.7105,-9.6 -2.28484,-13.81204 -10.00912,-21.28304 -23.81918,-23.03811 -2.20561,-0.2803 -9.39541,-0.28138 -11.56251,-0.002 -5.5776,0.71974 -10.2413,2.15126 -14.0343,4.30779 -7.8568,4.46708 -12.2144,11.37821 -13.2345,20.9896 -0.9726,9.16509 1.3443,18.34401 5.9941,23.74651 2.3192,2.69463 5.3646,5.04672 8.3878,6.47825 l 1.09,0.51614 c -6.89,-0.039 -20.6792,-0.002 -20.6792,-0.002 0,0 -0.2902,-9.62056 -0.8129,-15.28853 -0.066,-0.0739 -0.4607,-0.0257 -0.8766,0.10709 -2.3148,0.73921 -5.8052,0.89802 -7.4689,0.33981 -1.8632,-0.62515 -3.0411,-2.31456 -3.3682,-4.83074 -0.2082,-6.79917 -0.1487,-19.15363 -0.1487,-19.15363 l 12.0966,-0.0948 0.2471,-16.3114 -12.3412,0 -0.08,-18.10291 -27.1094,8.43432 0,9.66859 -9.534,0 0.08,16.32812 9.4212,0.0826 c 0,0 -0.75,17.80019 0.4678,25.70595 0.5993,3.8029 1.483,6.44036 2.9426,8.78212 0.7983,1.28081 2.3012,2.96023 3.3206,3.71051 0.3502,0.25782 0.6385,0.52149 0.6405,0.58594 -8.1409,0.17787 -23.1213,0.11719 -23.1213,0.11719 l 0,-55.31249 -27.1875,0 0,55.31249 -152.1874,0 0,-2.85156 z m 179.3741,-76.36719 -27.1875,0 0,16.56077 27.0703,0.0319 z m 86.8011,47.35056 c 0,0 0.083,-2.94636 0.4068,-4.5874 0.3948,-2.0036 1.0381,-3.34251 2.1463,-4.4666 1.2563,-1.27446 2.3229,-1.65593 4.6302,-1.65593 1.5389,0 1.8124,0.0439 2.6149,0.42002 2.55103,1.19557 4.00378,4.19521 4.07212,8.4081 l 0.0317,1.95312 z"
       id="path3772"
       style="fill:#fdbb30;fill-opacity:1" />
  </g>
</svg>
