<?xml version="1.0" encoding="UTF-8"?>
<svg width="300" height="114.43939" xmlns="http://www.w3.org/2000/svg">
  <ellipse fill="#fff" cx="147.219134" cy="58.61926" rx="130" ry="50"/>
  <path fill="#fd2840" d="m148.832962,103.336975c-25.557129,0 -56.82254,-2.504089 -72.251038,-4.837646c-16.635727,-2.513123 -23.129333,-4.60434 -30.578827,-15.684326l-8.495087,-12.650696c-3.715775,-5.447998 -4.680618,-9.958069 -4.680618,-13.251984c0,-3.033661 0.964844,-6.58786 4.16452,-11.003723l10.999222,-14.984222c8.221359,-11.174225 16.375412,-13.252014 30.583282,-15.325317c15.765106,-2.252777 48.161377,-4.510071 72.592102,-4.510071c25.557159,0 56.840485,2.508575 72.246582,4.855621c16.626709,2.513092 23.129303,4.586365 30.583282,15.675354l8.481644,12.646149c3.724731,5.461487 4.680603,9.962585 4.680603,13.247528c0,3.047119 -0.955872,6.596832 -4.155518,11.008179l-11.008224,14.988739c-8.221344,11.169769 -16.361938,13.252014 -30.578796,15.33429c-15.76059,2.252808 -48.156891,4.492126 -72.58313,4.492126m-0.789825,11.102417c30.502502,0 53.362579,-1.561707 70.339294,-3.293945c11.349274,-1.216125 22.954315,-2.602783 33.877228,-4.595337c11.780075,-2.16748 19.669357,-5.111389 26.593796,-14.638672l17.757568,-24.170471c1.907288,-2.598328 3.293945,-5.973022 3.383728,-10.48761c0.085266,-4.756897 -0.870605,-7.965546 -2.598389,-10.563904l-16.115112,-24.165955c-6.848145,-10.218384 -13.606506,-12.300629 -25.56163,-14.562408c-10.990204,-1.988007 -23.295349,-3.455475 -34.734344,-4.676117c-16.635681,-1.813019 -38.625153,-3.284943 -69.042389,-3.284943c-30.484558,0 -53.358063,1.561676 -70.334808,3.284943c-11.35376,1.220642 -22.967773,2.60733 -33.877228,4.599823c-11.78006,2.172028 -19.651398,5.11145 -26.593781,14.638702l-17.748627,24.165955c-1.911743,2.598358 -3.302902,5.982025 -3.383682,10.478668c-0.080811,4.765869 0.866119,7.974518 2.602829,10.572876l16.110641,24.170441c6.843658,10.222839 13.593079,12.305115 25.548157,14.557922c10.999207,1.988037 23.308823,3.459961 34.73436,4.676147c16.635681,1.817444 38.638611,3.293884 69.042389,3.293884"/>
  <path fill="#003366" d="m68.528397,83.856537l12.394867,0l0,-24.345459l16.101654,24.345459l14.382904,0l-18.188416,-27.204102l20.266205,-27.464355l-13.857849,0l-18.704498,25.821899l0,-25.821899l-12.394867,0l0,54.668457zm68.6026,-12.130096c0,7.795044 6.076263,12.722473 13.166748,12.722473c3.118896,0 6.071777,-0.771881 9.015656,-2.759918l0,2.167542l11.344788,0l0,-23.654358c0,-9.177246 -2.252808,-17.757599 -19.229553,-17.757599c-3.208679,0 -7.970062,0.435303 -10.133118,1.045624l0,10.91394c3.284973,-0.870605 6.66864,-1.305908 9.002228,-1.305908c5.721741,0 8.755402,1.830963 8.755402,5.802521l0,0.525055c-2.683624,-0.780853 -4.936432,-0.951385 -6.417328,-0.951385c-10.299164,0 -15.504822,5.973053 -15.504822,13.252014m64.370758,-46.17337c-12.834656,-1.642456 -21.316315,2.858643 -21.316315,16.465179l0,1.471954l-5.021667,0l0,10.137573l5.021667,0l0,30.22876l11.605042,0l0,-30.22876l7.79953,0l0,-10.137573l-7.79953,0l0,-1.821991c0,-6.502594 5.021667,-6.673126 9.711273,-5.807007l0,-10.308136zm2.252777,17.937134l0,10.137573l4.756897,0l0,13.682831c0,9.177216 3.724762,17.326782 17.416565,17.326782c0.686615,0 1.386688,0 2.167542,-0.094208l0,-10.393372c-4.514587,0 -8.055328,-0.946899 -8.055328,-8.396393l0,-12.12561l8.571381,0l0,-10.137573l-8.571381,0l0,-10.918457l-11.528778,0l0,10.918457l-4.756897,0l0,-0.000031zm-89.322052,40.366333l11.784576,0l0,-18.789764c0.264771,-6.421814 6.067291,-9.536224 10.483124,-10.056793l0,-11.263977c-5.021667,0.700043 -8.665649,3.293915 -10.483124,7.709747l0,-0.264771l-0.094208,0.089813l0,-7.624512l-11.690308,0l0,40.200317l-0.000061,-0.000061zm39.073914,-7.633484c-2.948364,0 -5.636475,-1.462952 -5.636475,-4.586365c0,-3.204193 2.26178,-4.846649 6.502594,-4.846649c1.121918,0 3.042633,0.085297 4.680634,0.695587l0,7.359711c-1.736725,0.861633 -3.464478,1.377716 -5.546753,1.377716"/>
</svg>
