<svg xmlns="http://www.w3.org/2000/svg" width="84" height="40" viewBox="0 0 84 40">
    <g fill="none" fill-rule="nonzero">
        <path fill="#C60030" d="M82.396 15.02v.147h.937V0H68.167v.98c1.5.083 2.875.25 4.125.54 5.833 1.71 10.104 7.105 10.104 13.5"/>
        <g fill="#000">
            <path d="M69.854 28.937A11.238 11.238 0 0 0 74 24.875a11.141 11.141 0 0 0 1.604-5.792c0-5.125-3.416-9.458-8.104-10.833-1.125-.25-2.375-.396-3.75-.458-.292 0-.583-.021-.875-.021H47.979v31.52h8.73v-8.916H60.957l5.938 8.917h10.083l-7.125-10.355zM66.875 19.5c0 1.23-.396 2.23-1.188 2.958-.791.73-1.916 1.104-3.374 1.104h-5.626v-8.187h5.563c1.438 0 2.563.333 3.375 1 .813.667 1.23 1.687 1.23 3.042v.083h.02zM32.604 7.875h8.771v31.521h-8.771zM16.396 31.5a7.8 7.8 0 0 1-5.771-2.542 7.858 7.858 0 0 1-2.104-5.354c0-2.042.791-3.896 2.062-5.312a7.819 7.819 0 0 1 5.813-2.584c2.062 0 3.937.792 5.354 2.104l6.02-6.02a16.352 16.352 0 0 0-11.374-4.584 16.27 16.27 0 0 0-11.834 5.063A16.345 16.345 0 0 0 .021 23.604c0 4.417 1.75 8.417 4.583 11.375A16.291 16.291 0 0 0 16.396 40c4.396 0 8.375-1.73 11.333-4.563l-6.02-6.02a7.756 7.756 0 0 1-5.313 2.083"/>
        </g>
    </g>
</svg>
