<?xml version="1.0" encoding="UTF-8" standalone="no"?>
<!-- Created with Inkscape (http://www.inkscape.org/) -->
<svg
   xmlns:svg="http://www.w3.org/2000/svg"
   xmlns="http://www.w3.org/2000/svg"
   version="1.0"
   width="110"
   height="40">
  <rect
     width="110"
     height="40"
     x="1.9995117e-07"
     y="1.9824219e-07"
     style="fill:#000000;fill-opacity:1;fill-rule:evenodd;stroke:none;stroke-width:3;stroke-linecap:square;stroke-linejoin:miter;marker:none;marker-start:none;marker-mid:none;marker-end:none;stroke-miterlimit:4;stroke-dasharray:none;stroke-dashoffset:0;stroke-opacity:1;visibility:visible;display:inline;overflow:visible;enable-background:accumulate" />
  <path
     d="M 6.992189,34.699707 L 6.113283,38.708507 L 5.244142,38.708507 L 4.677737,35.920417 L 4.101564,38.708507 L 3.22754,38.708507 L 2.392579,34.699707 L 3.154299,34.699707 L 3.69629,37.756357 L 4.326174,34.699707 L 5.019533,34.699707 L 5.664064,37.756357 L 6.225588,34.699707"
     style="fill:#ffffff;fill-opacity:1;fill-rule:nonzero;stroke:none" />
  <path
     d="M 11.723634,34.699707 L 11.723634,38.708507 L 10.971682,38.708507 L 10.971682,36.882337 L 9.248049,36.882337 L 9.248049,38.708507 L 8.500978,38.708507 L 8.500978,34.699707 L 9.248049,34.699707 L 9.248049,36.218267 L 10.971682,36.218267 L 10.971682,34.699707"
     style="fill:#ffffff;fill-opacity:1;fill-rule:nonzero;stroke:none" />
  <path
     d="M 13.999025,35.368657 L 13.999025,36.315917 L 15.927737,36.315917 L 15.927737,36.965337 L 13.999025,36.965337 L 13.999025,38.039557 L 16.259767,38.039557 L 16.259767,38.708507 L 13.26172,38.708507 L 13.26172,34.699707 L 16.113283,34.699707 L 16.113283,35.368657"
     style="fill:#ffffff;fill-opacity:1;fill-rule:nonzero;stroke:none" />
  <path
     d="M 18.671877,35.354007 L 18.671877,36.604007 L 18.930665,36.604007 C 19.189454,36.604007 19.277345,36.599137 19.423829,36.589357 C 19.589845,36.584487 20.126954,36.560057 20.126954,35.974137 C 20.126954,35.891117 20.122072,35.598147 19.809572,35.437017 C 19.653322,35.354007 19.458009,35.354007 19.018557,35.354007 L 18.671877,35.354007 z M 17.924807,34.699707 L 19.19922,34.699707 C 19.736329,34.704597 20.092775,34.704597 20.444338,34.992687 C 20.693362,35.192887 20.888674,35.510257 20.888674,35.983897 C 20.888674,36.750497 20.332033,37.014167 20.097658,37.077647 L 20.986329,38.708507 L 20.13672,38.708507 L 19.340822,37.219247 L 18.671877,37.219247 L 18.671877,38.708507 L 17.924807,38.708507"
     style="fill:#ffffff;fill-opacity:1;fill-rule:nonzero;stroke:none" />
  <path
     d="M 23.178713,35.368657 L 23.178713,36.315917 L 25.117189,36.315917 L 25.117189,36.965337 L 23.178713,36.965337 L 23.178713,38.039557 L 25.439454,38.039557 L 25.439454,38.708507 L 22.441408,38.708507 L 22.441408,34.699707 L 25.29297,34.699707 L 25.29297,35.368657"
     style="fill:#ffffff;fill-opacity:1;fill-rule:nonzero;stroke:none" />
  <path
     d="M 29.282228,38.708507 L 30.019533,38.708507 L 30.019533,34.699707 L 29.282228,34.699707 L 29.282228,38.708507 z"
     style="fill:#ffffff;fill-opacity:1;fill-rule:nonzero;stroke:none" />
  <path
     d="M 32.744142,35.383307 L 32.744142,38.039557 L 33.061525,38.039557 C 33.627932,38.039557 33.828127,38.005387 34.003908,37.946787 C 34.287112,37.829597 34.594728,37.580567 34.594728,36.750497 C 34.594728,36.374517 34.541017,35.754397 33.984377,35.495607 C 33.769533,35.397957 33.647463,35.388187 33.13965,35.383307 L 32.744142,35.383307 z M 31.992189,34.699707 L 33.432619,34.699707 C 33.774415,34.714357 34.19922,34.719247 34.619142,35.017097 C 35.288088,35.485847 35.390627,36.291507 35.390627,36.745607 C 35.390627,37.429207 35.156252,38.132337 34.570314,38.464357 C 34.169924,38.698737 33.750002,38.703617 33.281252,38.708507 L 31.992189,38.708507"
     style="fill:#ffffff;fill-opacity:1;fill-rule:nonzero;stroke:none" />
  <path
     d="M 37.666017,35.368657 L 37.666017,36.315917 L 39.589845,36.315917 L 39.589845,36.965337 L 37.666017,36.965337 L 37.666017,38.039557 L 39.916994,38.039557 L 39.916994,38.708507 L 36.923829,38.708507 L 36.923829,34.699707 L 39.775392,34.699707 L 39.775392,35.368657"
     style="fill:#ffffff;fill-opacity:1;fill-rule:nonzero;stroke:none" />
  <path
     d="M 43.281252,37.272957 L 42.729494,35.427257 L 42.167971,37.272957 L 43.281252,37.272957 z M 43.476565,37.927257 L 41.972658,37.927257 L 41.738283,38.708507 L 40.942385,38.708507 L 42.290041,34.699707 L 43.144533,34.699707 L 44.511721,38.708507 L 43.71094,38.708507"
     style="fill:#ffffff;fill-opacity:1;fill-rule:nonzero;stroke:none" />
  <path
     d="M 46.196291,37.517097 C 46.293947,37.663587 46.591799,38.122557 47.441408,38.122557 C 47.58301,38.122557 47.729494,38.117687 47.875978,38.054207 C 48.164065,37.937017 48.212892,37.731937 48.212892,37.600107 C 48.212892,37.341307 48.032228,37.253417 47.910158,37.204597 C 47.822267,37.165537 47.807619,37.160647 47.446291,37.072757 L 46.962892,36.975107 C 46.708987,36.916507 46.582033,36.882337 46.459963,36.833507 C 46.274416,36.755387 45.781252,36.511237 45.781252,35.847167 C 45.781252,35.090337 46.420901,34.602057 47.368166,34.602057 C 48.227541,34.602057 48.691408,35.021987 48.979494,35.412607 L 48.36426,35.871587 C 48.227541,35.676267 47.968752,35.271007 47.324221,35.271007 C 46.92383,35.271007 46.572267,35.456547 46.572267,35.759287 C 46.572267,36.101087 46.948244,36.179207 47.30469,36.242687 L 47.724612,36.335457 C 48.266603,36.442887 49.02344,36.667487 49.02344,37.526857 C 49.02344,38.439947 48.173829,38.815917 47.319338,38.815917 C 47.099612,38.815917 46.850588,38.786637 46.606447,38.723147 C 46.337892,38.640147 45.869142,38.444837 45.566408,37.966307"
     style="fill:#ffffff;fill-opacity:1;fill-rule:nonzero;stroke:none" />
  <path
     d="M 56.567384,34.699707 L 56.567384,38.708507 L 55.830079,38.708507 L 55.898439,35.417487 L 55.034182,38.708507 L 54.365237,38.708507 L 53.491213,35.417487 L 53.564454,38.708507 L 52.832033,38.708507 L 52.832033,34.699707 L 53.925783,34.699707 L 54.707033,37.678237 L 55.473634,34.699707"
     style="fill:#ffffff;fill-opacity:1;fill-rule:nonzero;stroke:none" />
  <path
     d="M 59.301764,35.368657 L 59.301764,36.315917 L 61.230477,36.315917 L 61.230477,36.965337 L 59.301764,36.965337 L 59.301764,38.039557 L 61.552739,38.039557 L 61.552739,38.708507 L 58.564452,38.708507 L 58.564452,34.699707 L 61.411139,34.699707 L 61.411139,35.368657"
     style="fill:#ffffff;fill-opacity:1;fill-rule:nonzero;stroke:none" />
  <path
     d="M 63.955077,35.368657 L 63.955077,36.315917 L 65.888677,36.315917 L 65.888677,36.965337 L 63.955077,36.965337 L 63.955077,38.039557 L 66.215827,38.039557 L 66.215827,38.708507 L 63.217777,38.708507 L 63.217777,34.699707 L 66.069339,34.699707 L 66.069339,35.368657"
     style="fill:#ffffff;fill-opacity:1;fill-rule:nonzero;stroke:none" />
  <path
     d="M 70.268552,35.383307 L 69.160152,35.383307 L 69.160152,38.708507 L 68.408202,38.708507 L 68.408202,35.383307 L 67.324227,35.383307 L 67.324227,34.699707 L 70.268552,34.699707"
     style="fill:#ffffff;fill-opacity:1;fill-rule:nonzero;stroke:none" />
  <path
     d="M 74.111327,38.708507 L 74.853514,38.708507 L 74.853514,34.699707 L 74.111327,34.699707 L 74.111327,38.708507 z"
     style="fill:#ffffff;fill-opacity:1;fill-rule:nonzero;stroke:none" />
  <path
     d="M 79.125977,34.699707 L 79.863277,34.699707 L 79.863277,38.708507 L 79.208989,38.708507 L 77.460939,35.900887 L 77.500002,38.708507 L 76.767577,38.708507 L 76.767577,34.699707 L 77.446289,34.699707 L 79.218752,37.536637"
     style="fill:#ffffff;fill-opacity:1;fill-rule:nonzero;stroke:none" />
  <path
     d="M 82.578127,35.383307 L 82.578127,38.039557 L 82.90039,38.039557 C 83.466802,38.039557 83.666989,38.005387 83.837889,37.946787 C 84.121099,37.829597 84.433599,37.580567 84.433599,36.750497 C 84.433599,36.374517 84.374999,35.754397 83.818369,35.495607 C 83.603519,35.397957 83.481452,35.388187 82.983402,35.383307 L 82.578127,35.383307 z M 81.826177,34.699707 L 83.271489,34.699707 C 83.618169,34.714357 84.033199,34.719247 84.453129,35.017097 C 85.126949,35.485847 85.229489,36.291507 85.229489,36.745607 C 85.229489,37.429207 84.995119,38.132337 84.404299,38.464357 C 84.008789,38.698737 83.583989,38.703617 83.115239,38.708507 L 81.826177,38.708507"
     style="fill:#ffffff;fill-opacity:1;fill-rule:nonzero;stroke:none" />
  <path
     d="M 89.892579,34.699707 L 89.892579,37.224137 C 89.882819,37.683107 89.882819,38.054207 89.458019,38.425297 C 89.047849,38.776857 88.525389,38.815917 88.251949,38.815917 C 88.007819,38.815917 87.768549,38.781747 87.539069,38.703617 C 87.065429,38.537607 86.806639,38.195807 86.708989,37.893067 C 86.660149,37.712407 86.660149,37.595217 86.660149,37.092297 L 86.660149,34.699707 L 87.407229,34.699707 L 87.407229,37.165537 C 87.407229,37.336437 87.402349,37.502447 87.460939,37.653807 C 87.617189,38.044437 88.037119,38.088387 88.266599,38.088387 C 88.388679,38.088387 88.691399,38.083507 88.916019,37.888187 C 89.135739,37.692887 89.135739,37.458507 89.135739,37.126467 L 89.135739,34.699707"
     style="fill:#ffffff;fill-opacity:1;fill-rule:nonzero;stroke:none" />
  <path
     d="M 91.972649,37.517097 C 92.070319,37.663587 92.368169,38.122557 93.217779,38.122557 C 93.359379,38.122557 93.505869,38.117687 93.642579,38.054207 C 93.935549,37.937017 93.984379,37.731937 93.984379,37.600107 C 93.984379,37.341307 93.808599,37.253417 93.686529,37.204597 C 93.593749,37.165537 93.583989,37.160647 93.222649,37.072757 L 92.734379,36.975107 C 92.485349,36.916507 92.358399,36.882337 92.236329,36.833507 C 92.050779,36.755387 91.557619,36.511237 91.557619,35.847167 C 91.557619,35.090337 92.197269,34.602057 93.144529,34.602057 C 94.003899,34.602057 94.467779,35.021987 94.755869,35.412607 L 94.140629,35.871587 C 94.003899,35.676267 93.740239,35.271007 93.100589,35.271007 C 92.700199,35.271007 92.353519,35.456547 92.353519,35.759287 C 92.353519,36.101087 92.724619,36.179207 93.085939,36.242687 L 93.496099,36.335457 C 94.042979,36.442887 94.799799,36.667487 94.799799,37.526857 C 94.799799,38.439947 93.950199,38.815917 93.095699,38.815917 C 92.875979,38.815917 92.626949,38.786637 92.382819,38.723147 C 92.114269,38.640147 91.640629,38.444837 91.337889,37.966307"
     style="fill:#ffffff;fill-opacity:1;fill-rule:nonzero;stroke:none" />
  <path
     d="M 98.740239,35.383307 L 97.631839,35.383307 L 97.631839,38.708507 L 96.884769,38.708507 L 96.884769,35.383307 L 95.800779,35.383307 L 95.800779,34.699707 L 98.740239,34.699707"
     style="fill:#ffffff;fill-opacity:1;fill-rule:nonzero;stroke:none" />
  <path
     d="M 100.93262,35.354007 L 100.93262,36.604007 L 101.19629,36.604007 C 101.4502,36.604007 101.54785,36.599137 101.68945,36.589357 C 101.85548,36.584487 102.39258,36.560057 102.39258,35.974137 C 102.39258,35.891117 102.38282,35.598147 102.0752,35.437017 C 101.91407,35.354007 101.71875,35.354007 101.2793,35.354007 L 100.93262,35.354007 z M 100.18555,34.699707 L 101.46973,34.699707 C 102.00195,34.704597 102.36328,34.704597 102.70997,34.992687 C 102.95899,35.192887 103.1543,35.510257 103.1543,35.983897 C 103.1543,36.750497 102.59278,37.014167 102.36817,37.077647 L 103.25195,38.708507 L 102.39747,38.708507 L 101.60157,37.219247 L 100.93262,37.219247 L 100.93262,38.708507 L 100.18555,38.708507"
     style="fill:#ffffff;fill-opacity:1;fill-rule:nonzero;stroke:none" />
  <path
     d="M 106.28907,37.126467 L 106.28907,38.708507 L 105.55177,38.708507 L 105.55177,37.126467 L 104.20899,34.699707 L 105.0586,34.699707 L 105.92774,36.364757 L 106.80664,34.699707 L 107.6416,34.699707"
     style="fill:#ffffff;fill-opacity:1;fill-rule:nonzero;stroke:none" />
  <path
     d="M 88.920899,15.642097 L 88.916019,15.637209 L 88.920899,15.637209 L 99.941399,1.320809 L 107.96875,1.320809 L 96.943369,15.642097 L 107.96875,29.963387 L 99.941399,29.963387 L 88.920899,15.642097 L 88.916019,15.642097"
     style="fill:#47a83f;fill-opacity:1;fill-rule:nonzero;stroke:none" />
  <path
     d="M 88.955079,15.642097 L 88.955079,15.637209 L 88.950199,15.637209 L 77.92969,1.320809 L 69.902352,1.320809 L 80.932614,15.642097 L 69.902352,29.963387 L 77.92969,29.963387 L 88.950199,15.642097 L 88.955079,15.642097"
     style="fill:#47a83f;fill-opacity:1;fill-rule:nonzero;stroke:none" />
  <path
     d="M 31.665041,15.378421 C 30.600588,13.454597 28.046877,12.434084 24.375002,12.434084 L 8.891603,12.434084 L 8.891603,7.146009 L 31.76758,7.155771 L 31.748049,1.184084 L 13.237307,1.184084 C 4.375002,1.184084 2.031252,2.976084 2.031252,9.748547 C 2.031252,13.801271 3.012697,16.228034 5.058596,17.507334 C 6.079103,18.146984 7.871096,18.405771 10.98633,18.405771 L 25.693362,18.405771 L 25.693362,23.937997 L 2.119142,23.908697 L 2.119142,29.567887 L 21.440432,29.567887 C 27.275392,29.567887 28.212892,29.489757 29.790041,28.625497 C 31.918947,27.521987 32.519533,25.734867 32.519533,20.534671 C 32.519533,18.020021 32.260744,16.437996 31.665041,15.378421"
     style="fill:#ffffff;fill-opacity:1;fill-rule:nonzero;stroke:none" />
  <path
     d="M 67.373052,4.201672 C 66.264652,2.067884 63.662114,1.306159 57.656252,1.306159 L 37.387697,1.306159 L 37.387697,29.689947 L 44.638674,29.689947 L 44.63379,7.058109 L 61.450202,7.058109 L 61.450202,12.556159 L 48.847658,12.556159 L 48.862307,18.308109 L 59.062502,18.308109 C 63.159177,18.308109 64.560552,18.132334 65.712889,17.541509 C 67.666014,16.433109 68.608402,13.874522 68.608402,9.440922 C 68.608402,7.570809 68.183602,5.773934 67.373052,4.201672"
     style="fill:#ffffff;fill-opacity:1;fill-rule:nonzero;stroke:none" />
</svg>
