<?xml version="1.0" encoding="UTF-8"?>
<!-- Created with Inkscape by Vulphere (http://www.inkscape.org/) -->
<svg width="40.0913mm" height="7.744757mm" version="1.1" viewBox="0 0 40.0913 7.744757" xmlns="http://www.w3.org/2000/svg">
<title>Total SE wordmark</title>
<desc>French energy corporation</desc>
 <g transform="translate(28.78094 -67.84898)" fill="#ed1a3b">
  <path d="m-16.851 69.47122c-2.613487-1e-6 -4.11798 1.124962-4.117979 3.061216 0 1.936255 1.504493 3.061307 4.11798 3.061308 2.63932 1e-6 4.143812-1.12505 4.143812-3.061305 0-1.936254-1.504493-3.061218-4.143813-3.061219zm1e-6 4.709586c-1.425215 0-2.164545-0.549457-2.164545-1.648369 0-1.099001 0.73933-1.648457 2.164545-1.648456 1.451046 0 2.190377 0.549457 2.190377 1.648457 0 1.098913-0.73933 1.648369-2.190377 1.648368z"/>
  <path d="m-4.974509 69.62806-7.178629-3e-6v1.308293h2.480765l7e-7 4.055662c1e-7 0.392443 0.6066072 0.523228 1.108105 0.523228 0.5014975 1e-6 1.082272-0.130784 1.082272-0.523228l-7e-7 -4.055661 2.507487 1e-6z"/>
  <path d="m8.274646 74.1023c-0.6066071 0-1.028827-0.104646-1.239937-0.287798-0.2903876-0.261658-0.3438332-0.627962-0.3438333-0.91576l-5e-7 -2.852015c0-0.392532-0.5807751-0.523405-1.05555-0.523406-0.4747747 0-1.05555 0.130873-1.05555 0.497178l5e-7 2.799736c1e-7 1.046633 0.3429426 1.779242 1.029718 2.197913 0.8444399 0.49709 2.374764 0.470951 3.852534 0.444812l1.848326 1e-6 -1e-6 -1.36066z"/>
  <path d="m-20.0711 67.84899-8.709844-3e-6v1.438547l3.008985 1e-6 1e-6 4.369951c0 1.046634 0.871163 1.753103 2.375655 1.857749l-1e-6 -6.227699 3.325204 1e-6z"/>
  <path d="m-0.1180892 69.68034c-0.185278-0.13052-0.3963879-0.157013-0.6600527-0.157013-0.2378327 0-0.4489427 0.02649-0.6333298 0.157013-0.5540522 0.418671-3.325204 3.166039-3.800869 5.547104l-0.052555 0.235519 1.953435 1e-6 0.025832-0.157013c0.079277-0.340165 0.2111098-0.706469 0.3696649-1.098912 4.275645 1e-6 4.275645 1e-6 4.275645 1e-6 0.185278 0.392444 0.3171105 0.758748 0.3696653 1.098913l0.052555 0.157012c1.953435 1e-6 1.953435 1e-6 1.953435 1e-6l-0.0525547-0.235519c-0.5014979-2.381065-3.246819-5.128435-3.800871-5.547107zm-2.111099 3.296913c0.4222198-0.627962 0.9237172-1.229785 1.451047-1.753102 0.5540524 0.523317 1.05555 1.12514 1.451938 1.753103z"/>
 </g>
</svg>
