<?xml version="1.0" encoding="UTF-8" standalone="no"?>
<!-- Created with Inkscape (http://www.inkscape.org/) -->

<svg
   xmlns:dc="http://purl.org/dc/elements/1.1/"
   xmlns:cc="http://creativecommons.org/ns#"
   xmlns:rdf="http://www.w3.org/1999/02/22-rdf-syntax-ns#"
   xmlns:svg="http://www.w3.org/2000/svg"
   xmlns="http://www.w3.org/2000/svg"
   xmlns:xlink="http://www.w3.org/1999/xlink"
   xmlns:sodipodi="http://sodipodi.sourceforge.net/DTD/sodipodi-0.dtd"
   xmlns:inkscape="http://www.inkscape.org/namespaces/inkscape"
   width="207.14999"
   height="61.855999"
   viewBox="0 0 207.15 61.855999"
   id="svg5513"
   version="1.1"
   inkscape:version="0.91 r13725"
   sodipodi:docname="idexx.svg">
  <defs
     id="defs5515" />
  <sodipodi:namedview
     id="base"
     pagecolor="#ffffff"
     bordercolor="#666666"
     borderopacity="1.0"
     inkscape:pageopacity="0.0"
     inkscape:pageshadow="2"
     inkscape:zoom="4.3900073"
     inkscape:cx="103.075"
     inkscape:cy="30.428"
     inkscape:document-units="px"
     inkscape:current-layer="layer1"
     showgrid="false"
     fit-margin-top="0"
     fit-margin-left="0"
     fit-margin-right="0"
     fit-margin-bottom="0"
     units="px"
     inkscape:window-width="1280"
     inkscape:window-height="744"
     inkscape:window-x="-4"
     inkscape:window-y="-4"
     inkscape:window-maximized="1" />
  <metadata
     id="metadata5518">
    <rdf:RDF>
      <cc:Work
         rdf:about="">
        <dc:format>image/svg+xml</dc:format>
        <dc:type
           rdf:resource="http://purl.org/dc/dcmitype/StillImage" />
        <dc:title></dc:title>
      </cc:Work>
    </rdf:RDF>
  </metadata>
  <g
     inkscape:label="Layer 1"
     inkscape:groupmode="layer"
     id="layer1"
     transform="translate(-1159.7821,-672.36277)">
    <g
       id="g5522"
       transform="translate(1138.3271,650.24177)">
	<defs
   id="defs5524">
		<rect
   height="106.322"
   width="250"
   id="SVGID_1_"
   x="0"
   y="0" />

	</defs>

	<clipPath
   id="SVGID_2_">
		<use
   id="use5528"
   overflow="visible"
   xlink:href="#SVGID_1_"
   style="overflow:visible"
   x="0"
   y="0"
   width="100%"
   height="100%" />

	</clipPath>

	<rect
   id="rect5530"
   height="37.731998"
   width="11.947"
   clip-path="url(#SVGID_2_)"
   y="22.621"
   x="21.955" />

	<polygon
   id="polygon5532"
   points="104.727,51.287 104.727,43.662 93.158,43.662 93.158,60.356 134.334,60.356 134.334,51.287 "
   clip-path="url(#SVGID_2_)" />

	<path
   id="path5534"
   d="m 63.652,81.181 -3.505,0 0,-3.628 3.936,0 c 1.512,0 1.828,0.43 1.828,1.883 0,1.641 -0.73,1.745 -2.259,1.745 m -3.505,-8.966 3.612,0 c 1.264,0 1.836,0.106 1.836,1.532 0,1.418 -0.328,1.866 -1.765,1.866 l -3.683,0 0,-3.398 z m 6.106,4.235 c 1.621,-0.393 1.901,-1.42 1.901,-2.952 0,-2.941 -1.313,-3.475 -3.93,-3.475 l -6.641,0 0,13.354 6.871,0 c 2.813,0 4.023,-0.766 4.023,-3.727 10e-4,-1.685 -0.359,-2.914 -2.224,-3.2"
   clip-path="url(#SVGID_2_)"
   inkscape:connector-curvature="0" />

	<path
   id="path5536"
   d="m 46.103,78.902 -4.615,0 2.282,-6.926 0.035,0 2.298,6.926 z m 0.573,1.952 0.873,2.524 2.598,0 -4.521,-13.354 -3.779,0 -4.434,13.354 2.654,0 0.839,-2.524 5.77,0 z"
   clip-path="url(#SVGID_2_)"
   inkscape:connector-curvature="0" />

	<path
   id="path5538"
   d="m 82.146,72.106 c 2.278,0 3.193,0.174 3.134,2.69 l 0,3.598 c 0,2.582 -0.801,2.893 -3.134,2.893 -2.563,0 -3.077,-0.249 -3.077,-2.893 l 0,-3.598 c 0.049,-2.12 0.319,-2.69 3.077,-2.69 m 0,-2.192 c -4.236,0 -5.638,0.732 -5.638,4.883 l 0,3.598 c 0,4.378 1.508,5.082 5.638,5.082 4.041,0 5.701,-0.812 5.701,-5.082 l 0,-3.598 c 0,-4.294 -1.85,-4.883 -5.701,-4.883"
   clip-path="url(#SVGID_2_)"
   inkscape:connector-curvature="0" />

	<path
   id="path5540"
   d="m 122.864,78.902 -4.615,0 2.282,-6.926 0.035,0 2.298,6.926 z m 0.567,1.952 0.87,2.524 2.595,0 -4.518,-13.354 -3.77,0 -4.434,13.354 2.656,0 0.827,-2.524 5.774,0 z"
   clip-path="url(#SVGID_2_)"
   inkscape:connector-curvature="0" />

	<path
   id="path5542"
   d="m 154.435,72.106 c 2.281,0 3.18,0.174 3.132,2.69 l 0,3.598 c 0,2.582 -0.8,2.893 -3.132,2.893 -2.567,0 -3.081,-0.249 -3.081,-2.893 l 0,-3.598 c 0.052,-2.12 0.316,-2.69 3.081,-2.69 m 0,-2.192 c -4.246,0 -5.649,0.732 -5.649,4.883 l 0,3.598 c 0,4.378 1.516,5.082 5.649,5.082 4.044,0 5.699,-0.812 5.699,-5.082 l 0,-3.598 c 0,-4.294 -1.859,-4.883 -5.699,-4.883"
   clip-path="url(#SVGID_2_)"
   inkscape:connector-curvature="0" />

	<path
   id="path5544"
   d="m 102.086,76.764 -3.384,0 0,-4.549 3.563,0 c 1.836,0 2.172,0.337 2.172,2.223 -10e-4,1.958 -0.465,2.326 -2.351,2.326 m 2.547,1.021 c 2.256,-0.339 2.37,-1.775 2.37,-3.763 0,-3.017 -1.129,-3.932 -4.051,-3.999 l -6.816,0 0,13.354 2.566,0 0,-4.419 3.938,0 c 1.228,0.014 1.691,0.803 1.691,1.931 l 0,2.488 2.558,0 0,-2.487 c 0,-1.895 -0.438,-2.866 -2.256,-3.105"
   clip-path="url(#SVGID_2_)"
   inkscape:connector-curvature="0" />

	<polygon
   id="polygon5546"
   points="138.079,83.378 138.079,72.215 142.003,72.215 142.003,70.023 131.601,70.023 131.601,72.215 135.523,72.215 135.523,83.378 "
   clip-path="url(#SVGID_2_)" />

	<polygon
   id="polygon5548"
   points="31.014,83.378 31.014,81.181 24.779,81.181 24.779,70.023 22.215,70.023 22.215,83.378 "
   clip-path="url(#SVGID_2_)" />

	<path
   id="path5550"
   d="m 174.39,76.764 -3.379,0 0,-4.549 3.558,0 c 1.827,0 2.178,0.337 2.178,2.223 -0.001,1.958 -0.472,2.326 -2.357,2.326 m 2.545,1.021 c 2.265,-0.339 2.365,-1.775 2.365,-3.763 0,-3.017 -1.116,-3.932 -4.038,-3.999 l -6.813,0 0,13.354 2.563,0 0,-4.419 3.932,0 c 1.226,0.014 1.691,0.803 1.691,1.931 l 0,2.488 2.565,0 0,-2.487 c -10e-4,-1.895 -0.447,-2.866 -2.265,-3.105"
   clip-path="url(#SVGID_2_)"
   inkscape:connector-curvature="0" />

	<rect
   id="rect5552"
   height="13.354"
   width="2.563"
   clip-path="url(#SVGID_2_)"
   y="70.023003"
   x="187.963" />

	<polygon
   id="polygon5554"
   points="199.286,70.023 199.286,83.378 208.485,83.378 208.485,81.181 201.843,81.181 201.843,77.646 208.098,77.646 208.098,75.544 201.843,75.544 201.843,72.215 208.435,72.215 208.435,70.023 "
   clip-path="url(#SVGID_2_)" />

	<path
   id="path5556"
   d="m 218.753,79.492 0,0.252 c 0,1.527 0.659,1.636 3.033,1.636 2.332,0 2.649,-0.418 2.649,-1.979 0,-1.902 -1.014,-1.652 -3.008,-1.756 -2.889,-0.183 -5.167,-0.073 -5.167,-3.957 0,-3.665 2.315,-3.774 5.525,-3.774 2.726,0 4.95,0.084 4.95,3.595 l 0,0.057 -2.57,0 c 0,-1.493 -0.584,-1.555 -2.38,-1.555 -2.554,0 -2.964,0.25 -2.964,1.678 0,1.639 0.349,1.695 2.947,1.855 4.108,0.249 5.23,0.466 5.23,3.857 0,3.761 -1.779,4.075 -5.214,4.075 -2.964,0 -5.596,0.096 -5.596,-3.732 l 0,-0.252 2.565,0 z"
   clip-path="url(#SVGID_2_)"
   inkscape:connector-curvature="0" />

	<path
   id="path5558"
   d="m 68.876,50.664 -18.663,0 0,-6.494 -11.571,0 0,16.187 32.114,0 c 11.569,0 18.44,-5.208 18.44,-14.534 l 0,-1.653 -11.574,0 c -0.14,5.136 -3.883,6.494 -8.746,6.494"
   clip-path="url(#SVGID_2_)"
   inkscape:connector-curvature="0" />

	<path
   id="path5560"
   d="m 50.213,32.002 18.663,0 c 4.846,0 8.584,1.355 8.746,6.449 l 11.574,0 0,-1.288 c 0,-9.333 -6.871,-14.542 -18.44,-14.542 l -32.114,0 0,15.83 11.572,0 0,-6.449 z"
   clip-path="url(#SVGID_2_)"
   inkscape:connector-curvature="0" />

	<polygon
   id="polygon5562"
   points="93.158,38.451 104.727,38.451 104.727,31.382 134.342,31.382 134.342,22.621 93.158,22.621 "
   clip-path="url(#SVGID_2_)" />

	<rect
   id="rect5564"
   height="6.7379999"
   width="25.138"
   clip-path="url(#SVGID_2_)"
   y="37.935001"
   x="108.696" />

	<polygon
   id="polygon5566"
   points="212.947,44.17 192.383,44.17 181.043,56.531 169.703,44.17 149.184,44.17 134.334,60.356 149.546,60.356 159.433,48.688 169.35,60.356 192.745,60.356 202.637,48.688 212.537,60.362 228.105,60.362 "
   clip-path="url(#SVGID_2_)" />

	<polygon
   id="polygon5568"
   points="181.043,26.452 192.055,38.451 213.233,38.451 227.747,22.621 212.537,22.621 202.643,34.292 192.747,22.629 169.355,22.621 159.433,34.292 149.546,22.629 134.334,22.629 148.85,38.451 170.045,38.451 "
   clip-path="url(#SVGID_2_)" />

</g>
  </g>
</svg>
