<?xml version="1.0" encoding="UTF-8"?>
<svg xmlns="http://www.w3.org/2000/svg" viewBox="0 0 445.12 235.52">
  <defs>
    <style>
      .cls-1 {
        fill: #034992;
      }
    </style>
  </defs>
  <g id="wedel">
    <g>
      <path class="cls-1" d="m100.34,171.97c.85,1.91,2.26,2.95,3.94,2.95.26,0,.52-.02.79-.07,2.83-.52,6.04-3.88,6.31-8.41.19-2.91-.36-4.88-1.62-5.85-1.71-1.26-3.99-1-5.35-.09-3.37,2.2-5.86,7.45-4.07,11.47Z"/>
      <path class="cls-1" d="m444.18,73.58c-1.63-2.39-6.11-4.57-18.12-1.42-2.94.77-6.36,1.9-10.45,3.45-.46.16-.89.31-1.3.46l-.34.12c-4.58,1.67-9.8,3.93-15.52,6.72-4.61,2.18-8.98,4.44-13.35,6.91-1.75.96-3.46,1.91-5.12,2.83-1.13.64-2.55,1.48-4.13,2.42-1.8,1.07-3.83,2.28-5.87,3.44-6.88-3.9-10.97-10.8-11.24-18.98,13.11-17.09,26.6-37.98,32.83-50.83,3.06-6.3,5.43-12.6,6.07-14.87,1.34-4.81.78-9.21-1.52-11.76-1.47-1.64-3.53-2.33-5.82-1.95-5.11.85-7.72,4.03-10.24,7.1l-.64.77c-4.43,5.37-14.88,23.35-22.8,40.57-2.96,6.47-6.53,15.83-8.01,20.51-1.46,4.69-2.89,14.56-3.01,16.48-3.75,4.45-6.92,7.81-9.97,10.58-2.24,2.03-4.42,3.75-6.62,5.23-3.74,1.75-6.79,2.12-9.03,1.13-1.7-.75-2.96-2.32-3.74-4.67,5.43-3.05,13.18-8.76,17.57-15.08,1.99-2.85,4.29-6.95,4.94-9.72.75-3.24.39-6.07-1.02-7.97-1.19-1.61-3.05-2.51-5.53-2.68-4.08-.26-8.87,2.7-12.12,4.95-4.03,2.78-8.12,7.31-12.17,13.45-1.68,2.56-4.73,7.85-6.19,14.4-.11.29-.18.53-.21.75-1.63,2.52-3.04,4.54-4.53,6.43l-.61.75c-.5.62-1.01,1.25-1.65,1.99l-.24.29c-2.08,2.47-4.44,5.28-7.23,5.79,0,0-.28.04-.42-.15-1.65-2.61,2.06-18.52,5.33-28.34.49-1.47.88-2.64,1.21-3.64.36-1.09.65-1.97.94-2.82.6-.64,5.89-6.34,7.62-8.44,7.95-9.64,13.93-17.22,18.55-27.01l.15-.33c1.83-3.91,3.91-8.34,3.72-12.76-.13-2.94-1.46-5.35-3.67-6.59-2.24-1.26-5.03-1.17-7.66.27-4.49,2.45-7.73,7.5-10.6,11.98-7.1,11.05-12.15,23.98-17.04,36.49-1.06,2.71-2.1,5.37-3.14,7.97-8.41.85-14.54,4.24-19.42,7.46-4.23,2.77-10.05,7.3-13.75,13.16-2.34,3.67-4.11,6.59-5.5,10.69-.41,1.28-1.11,4.81-1.21,5.33-.58,1.02-2.44,3.22-3.81,4.84-.42.49-.8.94-1.11,1.32-3.54,4.34-12.56,12.86-17.85,11.55-1.81-.45-3.04-2.09-3.65-4.87,5.43-3.04,13.19-8.75,17.61-15.09,1.99-2.85,4.29-6.95,4.94-9.72.74-3.25.38-6.09-1.03-7.98-1.19-1.6-3.05-2.5-5.52-2.66-4.08-.27-8.89,2.69-12.14,4.95-4.05,2.8-8.15,7.33-12.17,13.45-5.84,8.88-10.32,22.69-3.68,32.41,1.82,1.98,3.73,3,6.02,3.21,6.67.57,11.95-3.21,15.81-5.97l.86-.62c3.14-2.86,5.78-5.49,8.31-8.28l.37-.41c2.27-2.52,4.82-5.33,6.47-7.7.33,3.77,1.83,6.69,4.35,8.49,2.71,1.93,6.45,2.35,10.26,1.14,4.09-1.5,8.6-6.62,10.34-8.75,1.76-2.14,3.34-4.43,4.87-6.64.52-.75,1.03-1.48,1.52-2.19-.55,4.23.82,8.28,3.59,10.25,2.54,1.81,5.73,1.62,8.98-.52,2.86-1.89,6.8-7.01,7.94-8.54l.62-.83v.03s.99-1.33.99-1.33c.75-1,1.48-1.97,2.19-2.91,1.5-1.98,2.82-3.73,3.82-5.13.73,3.74,3.43,10.43,13.29,10.06,7.35-.26,14.72-4.36,22.49-12.5.62-.51,3.79-4.37,8.21-9.76l.9-1.1c.07.55.13.92.17,1.09,1.34,5.45,4.17,9.9,8.42,13.23-11,6.27-35.34,19.47-54.57,29.81-8.8,2.24-22.32,5.71-31.23,8.05-5.25,1.38-32.57,8.86-37.25,10.21-4,1.16-7.92,2.27-11.77,3.37-21.87,6.24-40.76,11.63-60.4,19.41-2.37.94-4.42,1.75-6.25,2.48-8.09,3.2-11.78,4.66-18.33,7.61l-.54.23c-15.95,6.82-43.44,20.03-48.36,31.96-2.08,5.04-2.11,9.1-.09,11.77,1.86,2.46,5.36,3.69,10.42,3.69,1.44,0,3.01-.1,4.7-.3,7.96-.94,20.08-4.7,37.03-11.47,9.98-3.75,23.09-9.46,40.1-17.47,23.83-11.23,51.59-25.33,78.03-38.89,6.28-3.22,21.79-11.43,47.34-25.09,8.76-2.16,38.74-9.3,42.21-10.09,3.95-.9,10.53-2.71,10.21-4.65-.28-1.68-5.43-1.41-8.48-1.09-5.49.56-13.59,2.31-22.31,4.3l9.82-5.25c10.86-5.81,19.5-10.43,23.1-12.35l3.93-2.17c10.1,3.8,24.14,2.77,42.9-3.15,5.84-1.84,14.34-5.08,21.68-10.04,3.08-1.93,5.87-3.94,8.31-5.97,3.12-2.62,5.43-5.02,7.27-7.58,2.93-4.03,3.66-8.12,1.91-10.68Zm-12.97,11.61c-7.02,6.75-14.33,11.12-23.68,14.17-6.33,2.06-18.46,5.03-29.7,2.23.88-.52,1.78-1.08,2.66-1.63,1.01-.63,1.97-1.22,2.69-1.63,13.13-7.38,24.24-12.77,33.03-16.02,5.49-2.03,11.22-3.43,13.95-3.36,1.77.03,3,.59,3.37,1.53.45,1.15-.37,2.82-2.32,4.69Zm-71.62-16.53c3.06-16.63,13.47-36.08,19.53-46.39,4.03-6.85,7.05-11.04,9.82-10.74.38.04.64.2.81.49,1.02,1.75-1.31,7.22-2.44,9.85-.81,1.92-1.84,4.07-2.94,6.34l-.99,2.06c-5.46,10.17-14.5,25.42-23.8,38.39Zm-33.98,15.39c-2.94,3.79-6.51,6.88-9.69,8.39,1.74-10.33,5.12-16.66,11.56-21.75,1.16-.85,2.3-1.61,3.35-1.54.44.21.72.57.86,1.11.75,2.94-3.11,10.02-6.07,13.78Zm-45.47-.28c-.57,2.48-2.21,7.47-2.74,8.75-.76,1.85-1.37,3.46-1.96,5.03-1.69,4.48-3.02,8.02-6.6,12.82-5.12,6.87-9.25,9.87-11.92,8.69-.96-.52-1.58-1.5-1.86-2.89-1.01-5.11,2.86-14.78,6.85-19.69,4.02-4.94,9.32-10.29,18.23-12.69Zm36.56-56.01c.4.11.55.67.61,1.13.21,1.64-.44,3.56-1.06,5.42l-.14.4c-3.44,10.42-10.75,20.69-16.86,27.3,3.03-8.58,9.51-25.71,15.43-33.08.81-.91,1.29-1.3,2.03-1.17Zm-89.48,72.37c1.05-.78,2.23-1.62,3.36-1.54.44.21.72.57.85,1.1.74,2.92-3.11,10-6.07,13.78-2.9,3.73-6.55,6.89-9.7,8.4,1.74-10.34,5.11-16.67,11.55-21.75Zm50.04,48.86c-10.58,5.62-18.83,9.95-23.97,12.58-24.96,12.79-53.62,27.39-77.82,38.79-11.55,5.45-21.83,10.24-30.7,13.73-5.64,2.21-12.8,4.96-18.24,6.57-4.56,1.35-11.32,1.55-14.73-.46-1.11-.65-1.79-1.5-2.02-2.52-1.34-6.02,9.31-14.11,34.54-26.21,3.28-1.57,7.17-3.31,11.55-5.17,1.97-.79,4-1.6,6.12-2.44,29.69-11.77,66.16-21.61,98.34-30.28,5.84-1.57,11.51-3.1,16.94-4.59Z"/>
      <path class="cls-1" d="m119.98,73.16c.64.13,1.36-.08,1.69-.48.75-.62,1.62-1.49,2.55-2.41,1.36-1.34,2.76-2.72,3.93-3.54,3.6-2.54,7.74-3.54,10.54-2.57,1.83.64,3.09,2.07,3.73,4.26,2.28,7.74-.97,22.4-2.04,27.21-3.54,16.08-7.66,31.18-12.68,49.24-.35,1.24-.73,2.56-1.12,3.94-1.35,4.72-2.88,10.07-3.87,14.64l-.13.6c-.5,2.27-1.12,5.09-.43,6.86.56,1.43,1.42,2.28,2.56,2.52.22.05.45.07.68.07,2.45,0,5.27-2.5,6.43-3.65,4.08-4.01,7.56-9.25,10.96-16.49,4.26-8.21,7.53-15.16,10.61-22.53,4.23-9.78,8.93-19.44,13.48-28.78,1.92-3.94,3.84-7.89,5.7-11.81.34-.51.71-1.16,1.06-1.78.62-1.1,1.63-2.9,2.15-2.92.29.54-.34,3.37-.73,5.08-.19.85-.38,1.68-.51,2.4-.41,2.23-1.09,5.11-1.7,7.66l-.39,1.66c-.37,1.56-.72,3.12-1.08,4.73-.55,2.44-1.12,4.97-1.82,7.76-1.73,6.83-3.01,13.11-4.37,19.75-.49,2.4-.99,4.85-1.53,7.4l-.14.65c-1.41,6.68-3.35,15.83,1.54,18.3,3.79,1.36,7.97-3.34,10.12-6.26,2.99-4.05,5.39-8.45,8.01-13.39,2.76-5.88,5.47-12.05,8.08-18.02,9.82-22.44,19.98-45.64,36.88-62,3.51-3.42,7.15-6.28,10.28-8.7,7.94-6.14,18.14-10.71,28.02-15.14,6.98-3.13,14.21-6.36,20.56-10.12.78-.46,1.58-.92,2.38-1.38,2.29-1.31,4.66-2.67,6.65-4.17,4.6-3.46,9.9-9.85,10.66-15.71.17-1.31.55-4.37-1.39-4.79-.9-.2-1.58.74-1.87,1.13-3.4,4.12-9.07,6.52-14.56,8.83-.61.26-1.22.52-1.83.77-3.34,1.43-6.59,2.79-9.74,4.1-8.62,3.6-16.75,6.99-24.15,10.83-15.52,8.05-26.84,17.13-36.69,29.44-8.99,11.23-14.56,24.89-19.96,38.09l-2.52,6.16c-4.07,9.96-8.29,20.26-12.69,29.25-.23.47-.49,1.02-.76,1.6-1.12,2.36-3.73,7.89-4.66,7.71-.06-.08-.21-.51.28-2.78.28-1.3,2.46-10.75,4.21-18.33l2.1-9.07c.34-1.46.69-2.94,1.04-4.41.37-1.5.78-3.15,1.21-4.89,3.05-12.23,7.22-28.99,6.67-34.58-.07-.82-.71-2.09-1.43-2.49-2.55-1.67-5.9-.22-8.01,1.56-9.09,9.34-18.89,31.04-28.37,52.03-3.5,7.76-6.81,15.08-10.09,21.85-.79,1.58-1.57,3.33-2.32,5.01-.97,2.19-1.89,4.25-2.72,5.67-.6,1.02-1.14,1.62-1.42,1.83,0-.25.16-.67.23-.86l.06-.17c6.12-18.54,12.1-38.94,15.99-54.59,1.54-6.16,3.09-12.71,3.64-19.22.71-8.43-.83-18.61-5.87-22.37-3.55-2.64-8.33-2.29-11.71-1.54-3.88.87-7.94,2.75-10.59,4.9-1.6,1.31-3.91,3.49-5.49,5.38-2.51,3.02-5.3,6.88-4.54,9.86.16.6.61,1.02,1.24,1.15Z"/>
      <path class="cls-1" d="m90.83,156.25c-.54-6.76-2.92-11.92-7.06-15.31-5.15-4.22-12.48-5.71-19.6-3.98-10.53,2.56-18.42,9.25-22.82,19.35-4.14,9.5-3.05,17.99-.87,22.37,1.24,2.48,2.96,4.1,4.86,4.55.48.11.79-.07.96-.24.89-.89.25-3.55.25-3.58-3.06-12.94,7.09-28.87,17.54-33.44,4.44-1.94,9.22-1.53,12.78,1.07,3.18,2.34,5.08,5.94,5.63,10.72,1.08,9.34-3.35,21.94-10.78,30.65-8.57,10.04-17.4,15.69-27.01,17.28-3.08.51-6.11.54-8.11.08-4.93-1.13-9.04-4.24-11.88-8.99-4.36-7.32-5.35-18.05-2.59-28,3.01-10.84,11.59-23.36,21.86-31.91,6.41-5.34,15.62-10.88,25.26-15.18.35-.16.8-.34,1.32-.54,3-1.18,7.52-2.97,6.8-5.71-.39-1.45-2.15-1.78-3.85-2.1-.87-.16-1.77-.33-2.46-.65-3.47-1.6-6.32-5.16-7.16-8.92,13.1-5.06,20.39-9.54,20.7-9.73,6.63-4.2,18.14-12.69,20.67-22.38,1.42-5.46.66-10.08-2.2-13.39-3.05-3.52-8.28-5.16-14.35-4.49h0c-5.14.59-9.69,1.92-14.74,4.33-13.14,6.23-26.97,24.06-26.59,42.11-6.89,1.36-13.76.05-17.57-3.36-2.7-2.41-3.86-5.72-3.48-9.85.68-7.25,7.12-13.13,12.4-16.78,1.67-1.14,3.23-1.75,4.48-2.23,1.72-.67,3.09-1.2,3.42-2.72.16-.7-.27-1.58-.96-1.92-.85-.41-2.32-.2-3.29-.06l-.17.02c-5.89.88-12.89,3.95-18.25,8.03-4.73,3.6-8.54,8.34-10.21,12.7-2.4,6.34-1.98,11.58,1.24,15.56,6.14,7.6,21.77,9.09,34.63,7.2,2.18,4.75,6.83,8.09,10.47,10.58-27.94,10.85-46.15,26.06-55.65,46.48-8.71,18.73-4.95,46.12,13.11,54.75,5.82,2.78,11.38,3.93,16.64,3.93,14.49,0,26.64-8.77,35.31-16.36,10.57-9.23,16.12-22.49,18.91-31.97,1.37-4.62,2.89-11.5,2.38-17.99Zm-27.26-60.83c1.59-6.64,4.72-15.73,10.7-22.7,4.23-4.94,10.8-9.66,15.64-9.66.28,0,.56.02.83.05,1.71.21,2.88.93,3.49,2.12,1.15,2.25.13,5.67-1.1,7.93-.73,1.31-2.15,3.2-3.12,4.3-6.66,7.59-16.97,14.59-26.45,17.97Z"/>
    </g>
  </g>
  <g id="od">
    <g>
      <path class="cls-1" d="m25,9.8c1.19,0,2.33.23,3.42.69,1.08.46,2.02,1.1,2.83,1.9s1.44,1.74,1.92,2.81c.48,1.07.71,2.2.71,3.39s-.24,2.35-.71,3.41c-.48,1.06-1.12,1.99-1.92,2.79-.8.8-1.74,1.44-2.83,1.9-1.08.46-2.22.69-3.42.69s-2.35-.23-3.43-.69c-1.07-.46-2.01-1.09-2.82-1.9s-1.44-1.73-1.92-2.79c-.48-1.06-.72-2.19-.72-3.41s.23-2.33.71-3.39c.47-1.07,1.11-2,1.92-2.81.81-.8,1.75-1.44,2.83-1.9,1.07-.46,2.22-.69,3.43-.69Zm0,1.02c-1.07,0-2.08.21-3.02.62-.94.42-1.76.98-2.47,1.68-.71.71-1.27,1.53-1.68,2.47-.41.94-.61,1.94-.61,3s.21,2.06.61,3c.41.94.97,1.76,1.68,2.46.71.71,1.54,1.26,2.47,1.68.94.42,1.95.62,3.02.62s2.06-.21,3.01-.62c.95-.42,1.77-.98,2.48-1.68.7-.7,1.26-1.53,1.68-2.47.41-.95.62-1.94.62-2.99s-.21-2.06-.62-3c-.42-.94-.98-1.76-1.68-2.47-.71-.7-1.53-1.26-2.48-1.68-.95-.42-1.95-.62-3.01-.62Z"/>
      <path class="cls-1" d="m41.76,10.03h3.09c.62,0,1.21.03,1.78.09.57.06,1.11.17,1.64.33.52.16,1.03.38,1.51.66.48.28.96.64,1.43,1.08.91.85,1.59,1.83,2.04,2.93.46,1.11.68,2.27.68,3.5s-.23,2.31-.67,3.4c-.45,1.08-1.1,2.04-1.96,2.87-.94.91-1.93,1.51-2.98,1.82-1.04.3-2.2.46-3.47.46h-3.09V10.03Zm3.06,16.1c1.12,0,2.15-.14,3.1-.43.95-.29,1.83-.83,2.65-1.64.73-.73,1.29-1.56,1.68-2.5.39-.94.59-1.92.59-2.95,0-1.09-.21-2.12-.62-3.11-.42-.98-1.03-1.85-1.85-2.59-.82-.74-1.68-1.24-2.58-1.49-.9-.25-1.89-.38-2.96-.38h-1.98v15.08h1.98Z"/>
      <path class="cls-1" d="m74.24,11.05l.52-1.02h3.27v17.12h-1.09V11.05h-2.7Z"/>
      <path class="cls-1" d="m92.89,27.38c-.67,0-1.3-.12-1.91-.35-.6-.24-1.13-.56-1.59-.98-.46-.42-.81-.91-1.08-1.49-.26-.57-.4-1.2-.4-1.88,0-2.08.93-3.56,2.79-4.45-.74-.36-1.33-.9-1.76-1.61-.43-.71-.65-1.48-.65-2.29,0-.65.12-1.25.35-1.81.24-.55.56-1.03.97-1.43.41-.4.89-.71,1.45-.94.56-.23,1.17-.34,1.82-.34s1.26.11,1.82.34c.56.23,1.05.54,1.45.94.41.4.73.88.97,1.43.23.55.35,1.16.35,1.81,0,.82-.22,1.58-.65,2.29-.43.71-1.02,1.25-1.76,1.61,1.86.89,2.79,2.38,2.79,4.45,0,.68-.13,1.31-.4,1.88-.27.57-.62,1.07-1.08,1.49-.45.42-.98.74-1.59.98-.61.23-1.24.35-1.91.35Zm0-8.61c-.53,0-1.03.1-1.5.3-.47.2-.88.47-1.24.81-.36.34-.64.74-.84,1.2-.21.46-.31.96-.31,1.49s.1,1.03.31,1.49c.2.46.48.86.84,1.2.35.34.77.61,1.24.81.47.2.97.3,1.5.3s1.01-.1,1.49-.3c.48-.2.89-.46,1.24-.81.35-.34.63-.74.84-1.2.21-.46.32-.96.32-1.49s-.11-1.03-.32-1.49c-.21-.46-.49-.86-.84-1.2-.35-.34-.76-.61-1.24-.81-.48-.2-.97-.3-1.49-.3Zm0-7.95c-.48,0-.94.09-1.36.27-.42.18-.79.43-1.11.75-.32.32-.57.69-.75,1.11-.18.42-.27.87-.27,1.34s.09.93.27,1.35c.18.42.43.78.75,1.09.32.31.69.56,1.11.74.42.18.88.27,1.36.27s.92-.09,1.34-.27c.42-.18.79-.43,1.11-.74.32-.31.57-.67.76-1.09.19-.42.28-.87.28-1.35s-.09-.92-.28-1.34c-.19-.42-.44-.8-.76-1.11-.32-.32-.69-.57-1.11-.75-.42-.18-.87-.27-1.34-.27Z"/>
      <path class="cls-1" d="m109.44,11.05l-1.43,4.63c.21-.07.43-.12.65-.15.22-.02.43-.03.65-.03.82,0,1.58.15,2.29.45.71.3,1.33.72,1.85,1.25.52.53.93,1.15,1.23,1.85.3.7.44,1.46.44,2.28,0,.88-.16,1.68-.48,2.42-.32.73-.76,1.37-1.32,1.91-.56.54-1.22.96-1.96,1.26-.75.3-1.56.46-2.42.46-1.04,0-2.01-.25-2.91-.75-.89-.5-1.61-1.2-2.16-2.09l1-.41c.44.68,1.03,1.22,1.76,1.62.73.4,1.51.6,2.33.6.71,0,1.38-.13,2-.39.62-.26,1.16-.61,1.61-1.06.46-.45.81-.98,1.07-1.59.26-.61.39-1.28.39-2.01,0-.68-.13-1.31-.4-1.9-.27-.58-.63-1.09-1.08-1.52-.46-.43-.98-.77-1.59-1.01-.6-.24-1.25-.36-1.93-.36-.5,0-.96.07-1.36.19-.41.13-.82.32-1.25.58l2.22-7.27h6.52v1.02h-5.72Z"/>
      <path class="cls-1" d="m123.98,11.05l.52-1.02h3.27v17.12h-1.09V11.05h-2.7Z"/>
    </g>
  </g>
</svg>